<svg xmlns="http://www.w3.org/2000/svg" xmlns:xlink="http://www.w3.org/1999/xlink" width="384" height="400"><defs><path id="a" d="M55 10h150c24.853 0 45 20.147 45 45v345H10V55c0-24.853 20.147-45 45-45z"/><rect id="d" width="110" height="48" rx="6"/><filter id="c" width="134.5%" height="179.2%" x="-17.3%" y="-35.4%" filterUnits="objectBoundingBox"><feOffset dy="2" in="SourceAlpha" result="shadowOffsetOuter1"/><feGaussianBlur in="shadowOffsetOuter1" result="shadowBlurOuter1" stdDeviation="6"/><feColorMatrix in="shadowBlurOuter1" values="0 0 0 0 0 0 0 0 0 0 0 0 0 0 0 0 0 0 0.2 0"/></filter><rect id="f" width="110" height="48" x="120" rx="6"/><filter id="e" width="134.5%" height="179.2%" x="-17.3%" y="-35.4%" filterUnits="objectBoundingBox"><feOffset dy="2" in="SourceAlpha" result="shadowOffsetOuter1"/><feGaussianBlur in="shadowOffsetOuter1" result="shadowBlurOuter1" stdDeviation="6"/><feColorMatrix in="shadowBlurOuter1" values="0 0 0 0 0 0 0 0 0 0 0 0 0 0 0 0 0 0 0.2 0"/></filter><rect id="h" width="110" height="48" x="240" rx="6"/><filter id="g" width="134.5%" height="179.2%" x="-17.3%" y="-35.4%" filterUnits="objectBoundingBox"><feOffset dy="2" in="SourceAlpha" result="shadowOffsetOuter1"/><feGaussianBlur in="shadowOffsetOuter1" result="shadowBlurOuter1" stdDeviation="6"/><feColorMatrix in="shadowBlurOuter1" values="0 0 0 0 0 0 0 0 0 0 0 0 0 0 0 0 0 0 0.2 0"/></filter></defs><g fill="none" fill-rule="evenodd"><g transform="translate(62)"><path fill="#FFF" stroke="#F0F0F5" d="M.5 399.5h259V50C259.5 22.662 237.338.5 210 .5H50C22.662.5.5 22.662.5 50v349.5z"/><mask id="b" fill="#fff"><use xlink:href="#a"/></mask><use fill="#F0F0F5" xlink:href="#a"/><g fill="#787887" fill-rule="nonzero" mask="url(#b)"><path d="M24.81 139.581a5.096 5.096 0 0 1 10.152.005c.786.04 1.55.216 2.268.518a4.128 4.128 0 0 0 1.601.342h.116a.75.75 0 1 1 0 1.5h-.116a5.62 5.62 0 0 1-2.183-.46 5.24 5.24 0 0 0-5.269.712 2.473 2.473 0 0 1-3.082 0 5.203 5.203 0 0 0-3.234-1.121c-.77 0-1.516.166-2.2.481a5.624 5.624 0 0 1-2.363.544.75.75 0 1 1 0-1.5c.573 0 1.159-.14 1.734-.405a6.732 6.732 0 0 1 2.577-.616zm1.497.111c1.067.2 2.064.655 2.918 1.328.368.29.858.29 1.226 0a6.699 6.699 0 0 1 3.013-1.345 3.595 3.595 0 0 0-7.157.017zm12.64 3.72a.75.75 0 1 1 0 1.5h-.116a5.62 5.62 0 0 1-2.183-.46 5.24 5.24 0 0 0-5.269.712 2.473 2.473 0 0 1-3.082 0 5.203 5.203 0 0 0-3.234-1.121c-.77 0-1.516.166-2.2.481a5.624 5.624 0 0 1-2.363.544.75.75 0 1 1 0-1.5c.573 0 1.159-.14 1.734-.405a6.737 6.737 0 0 1 2.829-.62c1.53 0 2.983.514 4.162 1.442.368.29.858.29 1.226 0a6.74 6.74 0 0 1 6.78-.916 4.128 4.128 0 0 0 1.6.343h.116zm-9.82-12.912a.75.75 0 0 1 1.5 0v2.837a.75.75 0 1 1-1.5 0V130.5zm6.964 2.263a.75.75 0 0 1 1.061 1.06l-2.007 2.008a.75.75 0 0 1-1.06-1.06l2.006-2.008zm-13.49 1.06a.75.75 0 0 1 1.061-1.06l2.007 2.007a.75.75 0 0 1-1.06 1.06l-2.007-2.006z"/></g><path fill="#414146" fill-rule="nonzero" d="M51.2 133.744h.864l2.928 4.152 2.928-4.152h.864V142h-.936v-6.66l-2.544 3.624h-.636l-2.532-3.624V142H51.2v-8.256zM60.488 139c0-.464.07-.888.21-1.272.14-.384.338-.714.594-.99.256-.276.562-.492.918-.648a2.883 2.883 0 0 1 1.17-.234c.424 0 .812.078 1.164.234.352.156.656.372.912.648s.456.606.6.99c.144.384.216.808.216 1.272 0 .464-.072.888-.216 1.272a2.97 2.97 0 0 1-.6.99c-.256.276-.56.492-.912.648-.352.156-.74.234-1.164.234-.424 0-.814-.078-1.17-.234a2.732 2.732 0 0 1-.918-.648 2.894 2.894 0 0 1-.594-.99 3.69 3.69 0 0 1-.21-1.272zm.972 0c0 .344.048.66.144.948.096.288.228.536.396.744a1.73 1.73 0 0 0 1.38.66c.28 0 .536-.058.768-.174.232-.116.432-.278.6-.486.168-.208.3-.456.396-.744.096-.288.144-.604.144-.948s-.048-.66-.144-.948a2.358 2.358 0 0 0-.396-.744 1.799 1.799 0 0 0-.6-.486 1.693 1.693 0 0 0-.768-.174 1.73 1.73 0 0 0-1.38.66c-.168.208-.3.456-.396.744a2.983 2.983 0 0 0-.144.948zm6.276-3h.948v.72c.232-.28.492-.494.78-.642.288-.148.58-.222.876-.222.2 0 .396.028.588.084v.864a2.232 2.232 0 0 0-.636-.096c-.28 0-.56.08-.84.24-.28.16-.536.392-.768.696V142h-.948v-6zm4.512 0h.948v.66c.584-.536 1.22-.804 1.908-.804.304 0 .584.052.84.156.256.104.476.248.66.432.184.184.328.404.432.66.104.256.156.54.156.852V142h-.96v-3.912c0-.416-.126-.756-.378-1.02s-.582-.396-.99-.396a1.88 1.88 0 0 0-.858.216 2.863 2.863 0 0 0-.81.636V142h-.948v-6zm6.804 0H80v6h-.948v-6zm-.12-1.74a.565.565 0 0 1 .588-.588c.176 0 .32.054.432.162.112.108.168.25.168.426a.565.565 0 0 1-.168.426.597.597 0 0 1-.432.162.565.565 0 0 1-.588-.588zM81.92 136h.948v.66c.584-.536 1.22-.804 1.908-.804.304 0 .584.052.84.156.256.104.476.248.66.432.184.184.328.404.432.66.104.256.156.54.156.852V142h-.96v-3.912c0-.416-.126-.756-.378-1.02s-.582-.396-.99-.396a1.88 1.88 0 0 0-.858.216 2.863 2.863 0 0 0-.81.636V142h-.948v-6zm11.7 6.096c0 .392-.068.752-.204 1.08-.136.328-.328.61-.576.846a2.66 2.66 0 0 1-.882.552c-.34.132-.714.198-1.122.198-.656 0-1.32-.152-1.992-.456v-.876c.328.184.652.324.972.42.32.096.632.144.936.144.28 0 .538-.048.774-.144a1.737 1.737 0 0 0 .996-1.002c.092-.236.138-.494.138-.774v-.624c-.504.456-1.068.684-1.692.684-.4 0-.764-.078-1.092-.234a2.532 2.532 0 0 1-.846-.648 3.01 3.01 0 0 1-.552-.99A3.892 3.892 0 0 1 88.28 139c0-.464.066-.888.198-1.272a3.01 3.01 0 0 1 .552-.99c.236-.276.518-.492.846-.648a2.51 2.51 0 0 1 1.092-.234c.304 0 .6.058.888.174.288.116.556.282.804.498V136h.96v6.096zM89.252 139c0 .344.046.66.138.948.092.288.22.534.384.738.164.204.36.364.588.48.228.116.482.174.762.174.56 0 1.072-.24 1.536-.72v-3.24c-.464-.48-.976-.72-1.536-.72-.28 0-.534.058-.762.174a1.788 1.788 0 0 0-.588.48c-.164.204-.292.45-.384.738a3.102 3.102 0 0 0-.138.948z" mask="url(#b)"/><g fill-rule="nonzero" mask="url(#b)"><g transform="translate(20 155)"><rect width="63" height="35" x=".5" y=".5" fill="#FFF" stroke="#F0F0F5" rx="4"/><path fill="#14BEF0" d="M9.62 15.436l-2.016 1.116v-1.416l2.544-1.392h1.044V22H9.62v-6.564zm3.84 2.436c0-.632.076-1.21.228-1.734a4.35 4.35 0 0 1 .636-1.35 2.95 2.95 0 0 1 .978-.876c.38-.208.802-.312 1.266-.312.456 0 .874.104 1.254.312.38.208.706.5.978.876s.484.826.636 1.35a6.21 6.21 0 0 1 .228 1.734 6.21 6.21 0 0 1-.228 1.734 4.35 4.35 0 0 1-.636 1.35 2.95 2.95 0 0 1-.978.876c-.38.208-.798.312-1.254.312-.464 0-.886-.104-1.266-.312a2.95 2.95 0 0 1-.978-.876 4.35 4.35 0 0 1-.636-1.35 6.21 6.21 0 0 1-.228-1.734zm1.548 0c0 .448.036.854.108 1.218.072.364.176.674.312.93s.3.454.492.594c.192.14.408.21.648.21.232 0 .444-.07.636-.21a1.71 1.71 0 0 0 .492-.594 3.38 3.38 0 0 0 .312-.93c.072-.364.108-.77.108-1.218 0-.448-.036-.854-.108-1.218a3.38 3.38 0 0 0-.312-.93 1.71 1.71 0 0 0-.492-.594 1.055 1.055 0 0 0-.636-.21c-.24 0-.456.07-.648.21a1.71 1.71 0 0 0-.492.594 3.38 3.38 0 0 0-.312.93c-.072.364-.108.77-.108 1.218zm5.508-1.092c0-.272.086-.494.258-.666a.901.901 0 0 1 .666-.258c.272 0 .494.086.666.258a.901.901 0 0 1 .258.666.886.886 0 0 1-.258.654.901.901 0 0 1-.666.258.901.901 0 0 1-.666-.258.886.886 0 0 1-.258-.654zm0 4.44c0-.272.086-.492.258-.66a.913.913 0 0 1 .666-.252c.272 0 .494.084.666.252.172.168.258.388.258.66a.901.901 0 0 1-.258.666.901.901 0 0 1-.666.258.901.901 0 0 1-.666-.258.901.901 0 0 1-.258-.666zm2.7-3.348c0-.632.076-1.21.228-1.734a4.35 4.35 0 0 1 .636-1.35 2.95 2.95 0 0 1 .978-.876c.38-.208.802-.312 1.266-.312.456 0 .874.104 1.254.312.38.208.706.5.978.876s.484.826.636 1.35a6.21 6.21 0 0 1 .228 1.734 6.21 6.21 0 0 1-.228 1.734 4.35 4.35 0 0 1-.636 1.35 2.95 2.95 0 0 1-.978.876c-.38.208-.798.312-1.254.312-.464 0-.886-.104-1.266-.312a2.95 2.95 0 0 1-.978-.876 4.35 4.35 0 0 1-.636-1.35 6.21 6.21 0 0 1-.228-1.734zm1.548 0c0 .448.036.854.108 1.218.072.364.176.674.312.93s.3.454.492.594c.192.14.408.21.648.21.232 0 .444-.07.636-.21a1.71 1.71 0 0 0 .492-.594 3.38 3.38 0 0 0 .312-.93c.072-.364.108-.77.108-1.218 0-.448-.036-.854-.108-1.218a3.38 3.38 0 0 0-.312-.93 1.71 1.71 0 0 0-.492-.594 1.055 1.055 0 0 0-.636-.21c-.24 0-.456.07-.648.21a1.71 1.71 0 0 0-.492.594 3.38 3.38 0 0 0-.312.93c-.072.364-.108.77-.108 1.218zm5.208 0c0-.632.076-1.21.228-1.734a4.35 4.35 0 0 1 .636-1.35 2.95 2.95 0 0 1 .978-.876c.38-.208.802-.312 1.266-.312.456 0 .874.104 1.254.312.38.208.706.5.978.876s.484.826.636 1.35a6.21 6.21 0 0 1 .228 1.734 6.21 6.21 0 0 1-.228 1.734 4.35 4.35 0 0 1-.636 1.35 2.95 2.95 0 0 1-.978.876c-.38.208-.798.312-1.254.312-.464 0-.886-.104-1.266-.312a2.95 2.95 0 0 1-.978-.876 4.35 4.35 0 0 1-.636-1.35 6.21 6.21 0 0 1-.228-1.734zm1.548 0c0 .448.036.854.108 1.218.072.364.176.674.312.93s.3.454.492.594c.192.14.408.21.648.21.232 0 .444-.07.636-.21a1.71 1.71 0 0 0 .492-.594 3.38 3.38 0 0 0 .312-.93c.072-.364.108-.77.108-1.218 0-.448-.036-.854-.108-1.218a3.38 3.38 0 0 0-.312-.93 1.71 1.71 0 0 0-.492-.594 1.055 1.055 0 0 0-.636-.21c-.24 0-.456.07-.648.21a1.71 1.71 0 0 0-.492.594 3.38 3.38 0 0 0-.312.93c-.072.364-.108.77-.108 1.218zm11.232-4.128h1.344L47.348 22H45.8l-.756-1.98h-3.252L41.036 22H39.5l3.252-8.256zm-.516 5.1h2.376l-1.188-3.132-1.188 3.132zm6.24-5.1h1.356l2.652 3.684 2.64-3.684h1.38V22h-1.476v-5.748l-2.076 2.892h-.948l-2.052-2.892V22h-1.476v-8.256z"/></g></g><g fill-rule="nonzero" mask="url(#b)"><g transform="translate(98 155)"><rect width="63" height="35" x=".5" y=".5" fill="#FFF" stroke="#F0F0F5" rx="4"/><path fill="#14BEF0" d="M9.62 15.436l-2.016 1.116v-1.416l2.544-1.392h1.044V22H9.62v-6.564zm3.84 2.436c0-.632.076-1.21.228-1.734a4.35 4.35 0 0 1 .636-1.35 2.95 2.95 0 0 1 .978-.876c.38-.208.802-.312 1.266-.312.456 0 .874.104 1.254.312.38.208.706.5.978.876s.484.826.636 1.35a6.21 6.21 0 0 1 .228 1.734 6.21 6.21 0 0 1-.228 1.734 4.35 4.35 0 0 1-.636 1.35 2.95 2.95 0 0 1-.978.876c-.38.208-.798.312-1.254.312-.464 0-.886-.104-1.266-.312a2.95 2.95 0 0 1-.978-.876 4.35 4.35 0 0 1-.636-1.35 6.21 6.21 0 0 1-.228-1.734zm1.548 0c0 .448.036.854.108 1.218.072.364.176.674.312.93s.3.454.492.594c.192.14.408.21.648.21.232 0 .444-.07.636-.21a1.71 1.71 0 0 0 .492-.594 3.38 3.38 0 0 0 .312-.93c.072-.364.108-.77.108-1.218 0-.448-.036-.854-.108-1.218a3.38 3.38 0 0 0-.312-.93 1.71 1.71 0 0 0-.492-.594 1.055 1.055 0 0 0-.636-.21c-.24 0-.456.07-.648.21a1.71 1.71 0 0 0-.492.594 3.38 3.38 0 0 0-.312.93c-.072.364-.108.77-.108 1.218zm5.508-1.092c0-.272.086-.494.258-.666a.901.901 0 0 1 .666-.258c.272 0 .494.086.666.258a.901.901 0 0 1 .258.666.886.886 0 0 1-.258.654.901.901 0 0 1-.666.258.901.901 0 0 1-.666-.258.886.886 0 0 1-.258-.654zm0 4.44c0-.272.086-.492.258-.66a.913.913 0 0 1 .666-.252c.272 0 .494.084.666.252.172.168.258.388.258.66a.901.901 0 0 1-.258.666.901.901 0 0 1-.666.258.901.901 0 0 1-.666-.258.901.901 0 0 1-.258-.666zm4.632-4.02h.384c.456 0 .824-.112 1.104-.336.28-.224.42-.516.42-.876 0-.328-.118-.594-.354-.798-.236-.204-.546-.306-.93-.306a3 3 0 0 0-.942.156 4.737 4.737 0 0 0-.954.444V14.08c.688-.32 1.376-.48 2.064-.48.392 0 .754.054 1.086.162.332.108.614.262.846.462a2.1 2.1 0 0 1 .744 1.632c0 .432-.116.818-.348 1.158-.232.34-.548.582-.948.726.456.16.816.424 1.08.792.264.368.396.792.396 1.272 0 .344-.07.66-.21.948-.14.288-.34.534-.6.738-.26.204-.568.364-.924.48a3.8 3.8 0 0 1-1.182.174c-.72 0-1.452-.176-2.196-.528v-1.428c.688.448 1.352.672 1.992.672.456 0 .826-.11 1.11-.33.284-.22.426-.51.426-.87 0-.368-.146-.668-.438-.9-.292-.232-.678-.348-1.158-.348h-.468V17.2zm4.824.672c0-.632.076-1.21.228-1.734a4.35 4.35 0 0 1 .636-1.35 2.95 2.95 0 0 1 .978-.876c.38-.208.802-.312 1.266-.312.456 0 .874.104 1.254.312.38.208.706.5.978.876s.484.826.636 1.35a6.21 6.21 0 0 1 .228 1.734 6.21 6.21 0 0 1-.228 1.734 4.35 4.35 0 0 1-.636 1.35 2.95 2.95 0 0 1-.978.876c-.38.208-.798.312-1.254.312-.464 0-.886-.104-1.266-.312a2.95 2.95 0 0 1-.978-.876 4.35 4.35 0 0 1-.636-1.35 6.21 6.21 0 0 1-.228-1.734zm1.548 0c0 .448.036.854.108 1.218.072.364.176.674.312.93s.3.454.492.594c.192.14.408.21.648.21.232 0 .444-.07.636-.21a1.71 1.71 0 0 0 .492-.594 3.38 3.38 0 0 0 .312-.93c.072-.364.108-.77.108-1.218 0-.448-.036-.854-.108-1.218a3.38 3.38 0 0 0-.312-.93 1.71 1.71 0 0 0-.492-.594 1.055 1.055 0 0 0-.636-.21c-.24 0-.456.07-.648.21a1.71 1.71 0 0 0-.492.594 3.38 3.38 0 0 0-.312.93c-.072.364-.108.77-.108 1.218zm11.232-4.128h1.344L47.348 22H45.8l-.756-1.98h-3.252L41.036 22H39.5l3.252-8.256zm-.516 5.1h2.376l-1.188-3.132-1.188 3.132zm6.24-5.1h1.356l2.652 3.684 2.64-3.684h1.38V22h-1.476v-5.748l-2.076 2.892h-.948l-2.052-2.892V22h-1.476v-8.256z"/></g></g><g fill-rule="nonzero" mask="url(#b)"><g transform="translate(176 155)"><rect width="63" height="35" x=".5" y=".5" fill="#FFF" stroke="#F0F0F5" rx="4"/><path fill="#14BEF0" d="M9.62 15.436l-2.016 1.116v-1.416l2.544-1.392h1.044V22H9.62v-6.564zm6.756 0l-2.016 1.116v-1.416l2.544-1.392h1.044V22h-1.572v-6.564zm4.14 1.344c0-.272.086-.494.258-.666a.901.901 0 0 1 .666-.258c.272 0 .494.086.666.258a.901.901 0 0 1 .258.666.886.886 0 0 1-.258.654.901.901 0 0 1-.666.258.901.901 0 0 1-.666-.258.886.886 0 0 1-.258-.654zm0 4.44c0-.272.086-.492.258-.66a.913.913 0 0 1 .666-.252c.272 0 .494.084.666.252.172.168.258.388.258.66a.901.901 0 0 1-.258.666.901.901 0 0 1-.666.258.901.901 0 0 1-.666-.258.901.901 0 0 1-.258-.666zm2.7-3.348c0-.632.076-1.21.228-1.734a4.35 4.35 0 0 1 .636-1.35 2.95 2.95 0 0 1 .978-.876c.38-.208.802-.312 1.266-.312.456 0 .874.104 1.254.312.38.208.706.5.978.876s.484.826.636 1.35a6.21 6.21 0 0 1 .228 1.734 6.21 6.21 0 0 1-.228 1.734 4.35 4.35 0 0 1-.636 1.35 2.95 2.95 0 0 1-.978.876c-.38.208-.798.312-1.254.312-.464 0-.886-.104-1.266-.312a2.95 2.95 0 0 1-.978-.876 4.35 4.35 0 0 1-.636-1.35 6.21 6.21 0 0 1-.228-1.734zm1.548 0c0 .448.036.854.108 1.218.072.364.176.674.312.93s.3.454.492.594c.192.14.408.21.648.21.232 0 .444-.07.636-.21a1.71 1.71 0 0 0 .492-.594 3.38 3.38 0 0 0 .312-.93c.072-.364.108-.77.108-1.218 0-.448-.036-.854-.108-1.218a3.38 3.38 0 0 0-.312-.93 1.71 1.71 0 0 0-.492-.594 1.055 1.055 0 0 0-.636-.21c-.24 0-.456.07-.648.21a1.71 1.71 0 0 0-.492.594 3.38 3.38 0 0 0-.312.93c-.072.364-.108.77-.108 1.218zm5.208 0c0-.632.076-1.21.228-1.734a4.35 4.35 0 0 1 .636-1.35 2.95 2.95 0 0 1 .978-.876c.38-.208.802-.312 1.266-.312.456 0 .874.104 1.254.312.38.208.706.5.978.876s.484.826.636 1.35a6.21 6.21 0 0 1 .228 1.734 6.21 6.21 0 0 1-.228 1.734 4.35 4.35 0 0 1-.636 1.35 2.95 2.95 0 0 1-.978.876c-.38.208-.798.312-1.254.312-.464 0-.886-.104-1.266-.312a2.95 2.95 0 0 1-.978-.876 4.35 4.35 0 0 1-.636-1.35 6.21 6.21 0 0 1-.228-1.734zm1.548 0c0 .448.036.854.108 1.218.072.364.176.674.312.93s.3.454.492.594c.192.14.408.21.648.21.232 0 .444-.07.636-.21a1.71 1.71 0 0 0 .492-.594 3.38 3.38 0 0 0 .312-.93c.072-.364.108-.77.108-1.218 0-.448-.036-.854-.108-1.218a3.38 3.38 0 0 0-.312-.93 1.71 1.71 0 0 0-.492-.594 1.055 1.055 0 0 0-.636-.21c-.24 0-.456.07-.648.21a1.71 1.71 0 0 0-.492.594 3.38 3.38 0 0 0-.312.93c-.072.364-.108.77-.108 1.218zm11.232-4.128h1.344L47.348 22H45.8l-.756-1.98h-3.252L41.036 22H39.5l3.252-8.256zm-.516 5.1h2.376l-1.188-3.132-1.188 3.132zm6.24-5.1h1.356l2.652 3.684 2.64-3.684h1.38V22h-1.476v-5.748l-2.076 2.892h-.948l-2.052-2.892V22h-1.476v-8.256z"/></g></g><g fill="#787887" fill-rule="nonzero" mask="url(#b)"><path d="M30 214.5a3.5 3.5 0 1 0 0-7 3.5 3.5 0 0 0 0 7zm0 1.5a5 5 0 1 1 0-10 5 5 0 0 1 0 10zm.75-11.455c0 .39-.336.705-.75.705s-.75-.316-.75-.705v-2.82c0-.39.336-.705.75-.705s.75.315.75.705v2.82zm0 15.753c0 .392-.336.71-.75.71s-.75-.318-.75-.71v-2.838c0-.392.336-.71.75-.71s.75.318.75.71v2.838zm-10.059-8.548c-.393 0-.711-.336-.711-.75s.318-.75.711-.75h2.847c.393 0 .712.336.712.75s-.319.75-.712.75h-2.847zm14.436-4.816a.75.75 0 0 1-1.061-1.06l2.121-2.122a.75.75 0 0 1 1.06 1.06l-2.12 2.122zm-11.314 11.314a.75.75 0 0 1-1.06-1.06l2.12-2.122a.75.75 0 0 1 1.061 1.06l-2.121 2.122zm10.253-2.121a.75.75 0 0 1 1.06-1.061l2.122 2.121a.75.75 0 0 1-1.06 1.06l-2.122-2.12zm-11.314-11.314a.75.75 0 1 1 1.06-1.06l2.122 2.12a.75.75 0 1 1-1.06 1.061l-2.122-2.121zm13.706 6.937c-.391 0-.708-.336-.708-.75s.317-.75.708-.75h2.83c.392 0 .709.336.709.75s-.317.75-.708.75h-2.831z"/></g><path fill="#414146" fill-rule="nonzero" d="M53.444 206.744h.804L57.536 215h-.984l-.924-2.364h-3.552L51.14 215h-.972l3.276-8.256zm-1.08 5.136h2.976l-1.488-3.804-1.488 3.804zm6.744-2.124h-1.152V209h1.152v-.648c0-.312.056-.598.168-.858a1.993 1.993 0 0 1 1.194-1.11c.284-.104.594-.156.93-.156.336 0 .684.046 1.044.138.36.092.732.238 1.116.438V209h2.04v.756h-2.04v3.54c0 .312.098.566.294.762.196.196.446.294.75.294.152 0 .31-.028.474-.084.164-.056.338-.132.522-.228v.828c-.208.088-.41.156-.606.204a2.44 2.44 0 0 1-.582.072c-.264 0-.506-.044-.726-.132-.22-.088-.41-.21-.57-.366a1.64 1.64 0 0 1-.372-.552 1.814 1.814 0 0 1-.132-.702v-3.636h-2.556V215h-.948v-5.244zm3.504-.756v-1.716c-.416-.184-.8-.276-1.152-.276-.416 0-.754.128-1.014.384s-.39.588-.39.996V209h2.556zm3.936 2.952c0-.456.07-.872.21-1.248.14-.376.332-.702.576-.978.244-.276.536-.49.876-.642.34-.152.714-.228 1.122-.228.368 0 .702.072 1.002.216.3.144.558.346.774.606.216.26.382.57.498.93.116.36.174.756.174 1.188v.21c0 .068-.004.138-.012.21h-4.26c.008.32.068.614.18.882.112.268.26.498.444.69.184.192.402.34.654.444.252.104.526.156.822.156.28 0 .57-.05.87-.15.3-.1.598-.242.894-.426v.864c-.624.312-1.252.468-1.884.468-.432 0-.828-.078-1.188-.234a2.702 2.702 0 0 1-.93-.66 3.041 3.041 0 0 1-.606-1.008 3.683 3.683 0 0 1-.216-1.29zm4.296-.408c-.008-.576-.154-1.042-.438-1.398a1.353 1.353 0 0 0-1.11-.534c-.504 0-.918.178-1.242.534-.324.356-.506.822-.546 1.398h3.336zM73.208 209h.948v.72c.232-.28.492-.494.78-.642.288-.148.58-.222.876-.222.2 0 .396.028.588.084v.864a2.232 2.232 0 0 0-.636-.096c-.28 0-.56.08-.84.24-.28.16-.536.392-.768.696V215h-.948v-6zm4.512 0h.948v.66c.584-.536 1.22-.804 1.908-.804.304 0 .584.052.84.156.256.104.476.248.66.432.184.184.328.404.432.66.104.256.156.54.156.852V215h-.96v-3.912c0-.416-.126-.756-.378-1.02s-.582-.396-.99-.396a1.88 1.88 0 0 0-.858.216 2.863 2.863 0 0 0-.81.636V215h-.948v-6zm6.36 3c0-.464.07-.888.21-1.272.14-.384.338-.714.594-.99.256-.276.562-.492.918-.648a2.883 2.883 0 0 1 1.17-.234c.424 0 .812.078 1.164.234.352.156.656.372.912.648s.456.606.6.99c.144.384.216.808.216 1.272 0 .464-.072.888-.216 1.272a2.97 2.97 0 0 1-.6.99c-.256.276-.56.492-.912.648-.352.156-.74.234-1.164.234-.424 0-.814-.078-1.17-.234a2.732 2.732 0 0 1-.918-.648 2.894 2.894 0 0 1-.594-.99 3.69 3.69 0 0 1-.21-1.272zm.972 0c0 .344.048.66.144.948.096.288.228.536.396.744a1.73 1.73 0 0 0 1.38.66c.28 0 .536-.058.768-.174.232-.116.432-.278.6-.486.168-.208.3-.456.396-.744.096-.288.144-.604.144-.948s-.048-.66-.144-.948a2.358 2.358 0 0 0-.396-.744 1.799 1.799 0 0 0-.6-.486 1.693 1.693 0 0 0-.768-.174 1.73 1.73 0 0 0-1.38.66c-.168.208-.3.456-.396.744a2.983 2.983 0 0 0-.144.948zm5.832 0c0-.464.07-.888.21-1.272.14-.384.338-.714.594-.99.256-.276.562-.492.918-.648a2.883 2.883 0 0 1 1.17-.234c.424 0 .812.078 1.164.234.352.156.656.372.912.648s.456.606.6.99c.144.384.216.808.216 1.272 0 .464-.072.888-.216 1.272a2.97 2.97 0 0 1-.6.99c-.256.276-.56.492-.912.648-.352.156-.74.234-1.164.234-.424 0-.814-.078-1.17-.234a2.732 2.732 0 0 1-.918-.648 2.894 2.894 0 0 1-.594-.99 3.69 3.69 0 0 1-.21-1.272zm.972 0c0 .344.048.66.144.948.096.288.228.536.396.744a1.73 1.73 0 0 0 1.38.66c.28 0 .536-.058.768-.174.232-.116.432-.278.6-.486.168-.208.3-.456.396-.744.096-.288.144-.604.144-.948s-.048-.66-.144-.948a2.358 2.358 0 0 0-.396-.744 1.799 1.799 0 0 0-.6-.486 1.693 1.693 0 0 0-.768-.174 1.73 1.73 0 0 0-1.38.66c-.168.208-.3.456-.396.744a2.983 2.983 0 0 0-.144.948zm6.276-3h.948v.66c.584-.536 1.22-.804 1.908-.804.304 0 .584.052.84.156.256.104.476.248.66.432.184.184.328.404.432.66.104.256.156.54.156.852V215h-.96v-3.912c0-.416-.126-.756-.378-1.02s-.582-.396-.99-.396a1.88 1.88 0 0 0-.858.216 2.863 2.863 0 0 0-.81.636V215h-.948v-6z" mask="url(#b)"/><g fill-rule="nonzero" mask="url(#b)"><g transform="translate(20 228)"><rect width="63" height="35" x=".5" y=".5" fill="#FFF" stroke="#F0F0F5" rx="4"/><path fill="#14BEF0" d="M13.316 15.436L11.3 16.552v-1.416l2.544-1.392h1.044V22h-1.572v-6.564zm4.14 1.344c0-.272.086-.494.258-.666a.901.901 0 0 1 .666-.258c.272 0 .494.086.666.258a.901.901 0 0 1 .258.666.886.886 0 0 1-.258.654.901.901 0 0 1-.666.258.901.901 0 0 1-.666-.258.886.886 0 0 1-.258-.654zm0 4.44c0-.272.086-.492.258-.66a.913.913 0 0 1 .666-.252c.272 0 .494.084.666.252.172.168.258.388.258.66a.901.901 0 0 1-.258.666.901.901 0 0 1-.666.258.901.901 0 0 1-.666-.258.901.901 0 0 1-.258-.666zm2.7-3.348c0-.632.076-1.21.228-1.734a4.35 4.35 0 0 1 .636-1.35 2.95 2.95 0 0 1 .978-.876c.38-.208.802-.312 1.266-.312.456 0 .874.104 1.254.312.38.208.706.5.978.876s.484.826.636 1.35a6.21 6.21 0 0 1 .228 1.734 6.21 6.21 0 0 1-.228 1.734 4.35 4.35 0 0 1-.636 1.35 2.95 2.95 0 0 1-.978.876c-.38.208-.798.312-1.254.312-.464 0-.886-.104-1.266-.312a2.95 2.95 0 0 1-.978-.876 4.35 4.35 0 0 1-.636-1.35 6.21 6.21 0 0 1-.228-1.734zm1.548 0c0 .448.036.854.108 1.218.072.364.176.674.312.93s.3.454.492.594c.192.14.408.21.648.21.232 0 .444-.07.636-.21a1.71 1.71 0 0 0 .492-.594 3.38 3.38 0 0 0 .312-.93c.072-.364.108-.77.108-1.218 0-.448-.036-.854-.108-1.218a3.38 3.38 0 0 0-.312-.93 1.71 1.71 0 0 0-.492-.594 1.055 1.055 0 0 0-.636-.21c-.24 0-.456.07-.648.21a1.71 1.71 0 0 0-.492.594 3.38 3.38 0 0 0-.312.93c-.072.364-.108.77-.108 1.218zm5.208 0c0-.632.076-1.21.228-1.734a4.35 4.35 0 0 1 .636-1.35 2.95 2.95 0 0 1 .978-.876c.38-.208.802-.312 1.266-.312.456 0 .874.104 1.254.312.38.208.706.5.978.876s.484.826.636 1.35a6.21 6.21 0 0 1 .228 1.734 6.21 6.21 0 0 1-.228 1.734 4.35 4.35 0 0 1-.636 1.35 2.95 2.95 0 0 1-.978.876c-.38.208-.798.312-1.254.312-.464 0-.886-.104-1.266-.312a2.95 2.95 0 0 1-.978-.876 4.35 4.35 0 0 1-.636-1.35 6.21 6.21 0 0 1-.228-1.734zm1.548 0c0 .448.036.854.108 1.218.072.364.176.674.312.93s.3.454.492.594c.192.14.408.21.648.21.232 0 .444-.07.636-.21a1.71 1.71 0 0 0 .492-.594 3.38 3.38 0 0 0 .312-.93c.072-.364.108-.77.108-1.218 0-.448-.036-.854-.108-1.218a3.38 3.38 0 0 0-.312-.93 1.71 1.71 0 0 0-.492-.594 1.055 1.055 0 0 0-.636-.21c-.24 0-.456.07-.648.21a1.71 1.71 0 0 0-.492.594 3.38 3.38 0 0 0-.312.93c-.072.364-.108.77-.108 1.218zm9.012-4.128h2.916c.416 0 .802.066 1.158.198.356.132.66.314.912.546.252.232.45.51.594.834.144.324.216.682.216 1.074s-.072.75-.216 1.074a2.499 2.499 0 0 1-.594.834 2.653 2.653 0 0 1-.912.54 3.398 3.398 0 0 1-1.158.192h-1.38V22h-1.536v-8.256zm1.536 4.044h1.164c.448 0 .812-.128 1.092-.384s.42-.592.42-1.008c0-.424-.14-.764-.42-1.02-.28-.256-.644-.384-1.092-.384h-1.164v2.796zm5.772-4.044h1.356l2.652 3.684 2.64-3.684h1.38V22h-1.476v-5.748l-2.076 2.892h-.948l-2.052-2.892V22H44.78v-8.256z"/></g></g><g fill-rule="nonzero" mask="url(#b)"><g transform="translate(98 228)"><rect width="63" height="35" x=".5" y=".5" fill="#FFF" stroke="#F0F0F5" rx="4"/><path fill="#14BEF0" d="M13.316 15.436L11.3 16.552v-1.416l2.544-1.392h1.044V22h-1.572v-6.564zm4.14 1.344c0-.272.086-.494.258-.666a.901.901 0 0 1 .666-.258c.272 0 .494.086.666.258a.901.901 0 0 1 .258.666.886.886 0 0 1-.258.654.901.901 0 0 1-.666.258.901.901 0 0 1-.666-.258.886.886 0 0 1-.258-.654zm0 4.44c0-.272.086-.492.258-.66a.913.913 0 0 1 .666-.252c.272 0 .494.084.666.252.172.168.258.388.258.66a.901.901 0 0 1-.258.666.901.901 0 0 1-.666.258.901.901 0 0 1-.666-.258.901.901 0 0 1-.258-.666zm5.616-5.784l-2.016 1.116v-1.416l2.544-1.392h1.044V22h-1.572v-6.564zm9.036-.372H29.12V16.9c.136-.016.266-.03.39-.042.124-.012.246-.018.366-.018.392 0 .754.062 1.086.186.332.124.614.296.846.516.232.22.414.488.546.804.132.316.198.666.198 1.05a2.628 2.628 0 0 1-.858 1.974c-.268.244-.59.434-.966.57a3.647 3.647 0 0 1-1.248.204 4.345 4.345 0 0 1-1.944-.468v-1.464c.608.408 1.208.612 1.8.612.24 0 .46-.034.66-.102.2-.068.372-.166.516-.294a1.352 1.352 0 0 0 .456-1.032 1.307 1.307 0 0 0-.456-1.002 1.625 1.625 0 0 0-.516-.294c-.2-.072-.42-.108-.66-.108-.512 0-1.04.08-1.584.24v-4.488h4.356v1.32zm5.364-1.32h2.916c.416 0 .802.066 1.158.198.356.132.66.314.912.546.252.232.45.51.594.834.144.324.216.682.216 1.074s-.072.75-.216 1.074a2.499 2.499 0 0 1-.594.834 2.653 2.653 0 0 1-.912.54 3.398 3.398 0 0 1-1.158.192h-1.38V22h-1.536v-8.256zm1.536 4.044h1.164c.448 0 .812-.128 1.092-.384s.42-.592.42-1.008c0-.424-.14-.764-.42-1.02-.28-.256-.644-.384-1.092-.384h-1.164v2.796zm5.772-4.044h1.356l2.652 3.684 2.64-3.684h1.38V22h-1.476v-5.748l-2.076 2.892h-.948l-2.052-2.892V22H44.78v-8.256z"/></g></g><g fill-rule="nonzero" mask="url(#b)"><g transform="translate(176 228)"><rect width="63" height="35" x=".5" y=".5" fill="#FFF" stroke="#F0F0F5" rx="4"/><path fill="#14BEF0" d="M10.76 21.016a29.323 29.323 0 0 0 1.614-1.506 12.3 12.3 0 0 0 1.086-1.242c.28-.376.486-.72.618-1.032.132-.312.198-.604.198-.876 0-.416-.13-.754-.39-1.014s-.594-.39-1.002-.39c-.304 0-.62.064-.948.192-.328.128-.656.32-.984.576v-1.452a4.572 4.572 0 0 1 2.376-.672c.368 0 .71.062 1.026.186a2.336 2.336 0 0 1 1.338 1.314c.128.304.192.64.192 1.008 0 .312-.058.636-.174.972-.116.336-.296.69-.54 1.062a9.865 9.865 0 0 1-.936 1.188c-.38.42-.83.87-1.35 1.35h3.084V22H10.76v-.984zm6.696-4.236c0-.272.086-.494.258-.666a.901.901 0 0 1 .666-.258c.272 0 .494.086.666.258a.901.901 0 0 1 .258.666.886.886 0 0 1-.258.654.901.901 0 0 1-.666.258.901.901 0 0 1-.666-.258.886.886 0 0 1-.258-.654zm0 4.44c0-.272.086-.492.258-.66a.913.913 0 0 1 .666-.252c.272 0 .494.084.666.252.172.168.258.388.258.66a.901.901 0 0 1-.258.666.901.901 0 0 1-.666.258.901.901 0 0 1-.666-.258.901.901 0 0 1-.258-.666zm2.7-3.348c0-.632.076-1.21.228-1.734a4.35 4.35 0 0 1 .636-1.35 2.95 2.95 0 0 1 .978-.876c.38-.208.802-.312 1.266-.312.456 0 .874.104 1.254.312.38.208.706.5.978.876s.484.826.636 1.35a6.21 6.21 0 0 1 .228 1.734 6.21 6.21 0 0 1-.228 1.734 4.35 4.35 0 0 1-.636 1.35 2.95 2.95 0 0 1-.978.876c-.38.208-.798.312-1.254.312-.464 0-.886-.104-1.266-.312a2.95 2.95 0 0 1-.978-.876 4.35 4.35 0 0 1-.636-1.35 6.21 6.21 0 0 1-.228-1.734zm1.548 0c0 .448.036.854.108 1.218.072.364.176.674.312.93s.3.454.492.594c.192.14.408.21.648.21.232 0 .444-.07.636-.21a1.71 1.71 0 0 0 .492-.594 3.38 3.38 0 0 0 .312-.93c.072-.364.108-.77.108-1.218 0-.448-.036-.854-.108-1.218a3.38 3.38 0 0 0-.312-.93 1.71 1.71 0 0 0-.492-.594 1.055 1.055 0 0 0-.636-.21c-.24 0-.456.07-.648.21a1.71 1.71 0 0 0-.492.594 3.38 3.38 0 0 0-.312.93c-.072.364-.108.77-.108 1.218zm5.208 0c0-.632.076-1.21.228-1.734a4.35 4.35 0 0 1 .636-1.35 2.95 2.95 0 0 1 .978-.876c.38-.208.802-.312 1.266-.312.456 0 .874.104 1.254.312.38.208.706.5.978.876s.484.826.636 1.35a6.21 6.21 0 0 1 .228 1.734 6.21 6.21 0 0 1-.228 1.734 4.35 4.35 0 0 1-.636 1.35 2.95 2.95 0 0 1-.978.876c-.38.208-.798.312-1.254.312-.464 0-.886-.104-1.266-.312a2.95 2.95 0 0 1-.978-.876 4.35 4.35 0 0 1-.636-1.35 6.21 6.21 0 0 1-.228-1.734zm1.548 0c0 .448.036.854.108 1.218.072.364.176.674.312.93s.3.454.492.594c.192.14.408.21.648.21.232 0 .444-.07.636-.21a1.71 1.71 0 0 0 .492-.594 3.38 3.38 0 0 0 .312-.93c.072-.364.108-.77.108-1.218 0-.448-.036-.854-.108-1.218a3.38 3.38 0 0 0-.312-.93 1.71 1.71 0 0 0-.492-.594 1.055 1.055 0 0 0-.636-.21c-.24 0-.456.07-.648.21a1.71 1.71 0 0 0-.492.594 3.38 3.38 0 0 0-.312.93c-.072.364-.108.77-.108 1.218zm9.012-4.128h2.916c.416 0 .802.066 1.158.198.356.132.66.314.912.546.252.232.45.51.594.834.144.324.216.682.216 1.074s-.072.75-.216 1.074a2.499 2.499 0 0 1-.594.834 2.653 2.653 0 0 1-.912.54 3.398 3.398 0 0 1-1.158.192h-1.38V22h-1.536v-8.256zm1.536 4.044h1.164c.448 0 .812-.128 1.092-.384s.42-.592.42-1.008c0-.424-.14-.764-.42-1.02-.28-.256-.644-.384-1.092-.384h-1.164v2.796zm5.772-4.044h1.356l2.652 3.684 2.64-3.684h1.38V22h-1.476v-5.748l-2.076 2.892h-.948l-2.052-2.892V22H44.78v-8.256z"/></g></g><g fill="#787887" fill-rule="nonzero" mask="url(#b)"><path d="M25.616 282.75a4.631 4.631 0 0 1-.366-1.808c0-2.594 2.13-4.692 4.75-4.692s4.75 2.098 4.75 4.692c0 .63-.126 1.242-.366 1.808h4.898c.397 0 .718.336.718.75s-.321.75-.718.75H20.718c-.397 0-.718-.336-.718-.75s.321-.75.718-.75h4.898zm1.68 0h5.438a.75.75 0 0 1 .086-.22 3.13 3.13 0 0 0 .43-1.588c0-1.76-1.453-3.192-3.25-3.192s-3.25 1.432-3.25 3.192c0 .595.166 1.165.475 1.662a.781.781 0 0 1 .07.146zm-4.296 5a.75.75 0 1 1 0-1.5h14.39a.75.75 0 1 1 0 1.5H23zm2 3.5a.75.75 0 1 1 0-1.5h10.39a.75.75 0 1 1 0 1.5H25z"/></g><path fill="#414146" fill-rule="nonzero" d="M51.2 279.744h4.716v.792h-3.744v2.88h3.276v.78h-3.276v3.012h3.84V288H51.2v-8.256zM60.008 288h-.78l-2.388-6h.984l1.788 4.692L61.424 282h.972l-2.388 6zm3.108-3.048c0-.456.07-.872.21-1.248.14-.376.332-.702.576-.978.244-.276.536-.49.876-.642.34-.152.714-.228 1.122-.228.368 0 .702.072 1.002.216.3.144.558.346.774.606.216.26.382.57.498.93.116.36.174.756.174 1.188v.21c0 .068-.004.138-.012.21h-4.26c.008.32.068.614.18.882.112.268.26.498.444.69.184.192.402.34.654.444.252.104.526.156.822.156.28 0 .57-.05.87-.15.3-.1.598-.242.894-.426v.864c-.624.312-1.252.468-1.884.468-.432 0-.828-.078-1.188-.234a2.702 2.702 0 0 1-.93-.66 3.041 3.041 0 0 1-.606-1.008 3.683 3.683 0 0 1-.216-1.29zm4.296-.408c-.008-.576-.154-1.042-.438-1.398a1.353 1.353 0 0 0-1.11-.534c-.504 0-.918.178-1.242.534-.324.356-.506.822-.546 1.398h3.336zM69.776 282h.948v.66c.584-.536 1.22-.804 1.908-.804.304 0 .584.052.84.156.256.104.476.248.66.432.184.184.328.404.432.66.104.256.156.54.156.852V288h-.96v-3.912c0-.416-.126-.756-.378-1.02s-.582-.396-.99-.396a1.88 1.88 0 0 0-.858.216 2.863 2.863 0 0 0-.81.636V288h-.948v-6zm6.804 0h.948v6h-.948v-6zm-.12-1.74a.565.565 0 0 1 .588-.588c.176 0 .32.054.432.162.112.108.168.25.168.426a.565.565 0 0 1-.168.426.597.597 0 0 1-.432.162.565.565 0 0 1-.588-.588zm2.988 1.74h.948v.66c.584-.536 1.22-.804 1.908-.804.304 0 .584.052.84.156.256.104.476.248.66.432.184.184.328.404.432.66.104.256.156.54.156.852V288h-.96v-3.912c0-.416-.126-.756-.378-1.02s-.582-.396-.99-.396a1.88 1.88 0 0 0-.858.216 2.863 2.863 0 0 0-.81.636V288h-.948v-6zm11.7 6.096c0 .392-.068.752-.204 1.08-.136.328-.328.61-.576.846a2.66 2.66 0 0 1-.882.552c-.34.132-.714.198-1.122.198-.656 0-1.32-.152-1.992-.456v-.876c.328.184.652.324.972.42.32.096.632.144.936.144.28 0 .538-.048.774-.144a1.737 1.737 0 0 0 .996-1.002c.092-.236.138-.494.138-.774v-.624c-.504.456-1.068.684-1.692.684-.4 0-.764-.078-1.092-.234a2.532 2.532 0 0 1-.846-.648 3.01 3.01 0 0 1-.552-.99 3.892 3.892 0 0 1-.198-1.272c0-.464.066-.888.198-1.272a3.01 3.01 0 0 1 .552-.99c.236-.276.518-.492.846-.648a2.51 2.51 0 0 1 1.092-.234c.304 0 .6.058.888.174.288.116.556.282.804.498V282h.96v6.096zM86.78 285c0 .344.046.66.138.948.092.288.22.534.384.738.164.204.36.364.588.48.228.116.482.174.762.174.56 0 1.072-.24 1.536-.72v-3.24c-.464-.48-.976-.72-1.536-.72-.28 0-.534.058-.762.174a1.788 1.788 0 0 0-.588.48c-.164.204-.292.45-.384.738a3.102 3.102 0 0 0-.138.948z" mask="url(#b)"/><g fill-rule="nonzero" mask="url(#b)"><g transform="translate(20 301)"><rect width="63" height="35" x=".5" y=".5" fill="#FFF" stroke="#F0F0F5" rx="4"/><path fill="#14BEF0" d="M15.596 15.064h-2.988V16.9c.136-.016.266-.03.39-.042.124-.012.246-.018.366-.018.392 0 .754.062 1.086.186.332.124.614.296.846.516.232.22.414.488.546.804.132.316.198.666.198 1.05a2.628 2.628 0 0 1-.858 1.974c-.268.244-.59.434-.966.57a3.647 3.647 0 0 1-1.248.204 4.345 4.345 0 0 1-1.944-.468v-1.464c.608.408 1.208.612 1.8.612.24 0 .46-.034.66-.102.2-.068.372-.166.516-.294a1.352 1.352 0 0 0 .456-1.032A1.307 1.307 0 0 0 14 18.394a1.625 1.625 0 0 0-.516-.294c-.2-.072-.42-.108-.66-.108-.512 0-1.04.08-1.584.24v-4.488h4.356v1.32zm1.86 1.716c0-.272.086-.494.258-.666a.901.901 0 0 1 .666-.258c.272 0 .494.086.666.258a.901.901 0 0 1 .258.666.886.886 0 0 1-.258.654.901.901 0 0 1-.666.258.901.901 0 0 1-.666-.258.886.886 0 0 1-.258-.654zm0 4.44c0-.272.086-.492.258-.66a.913.913 0 0 1 .666-.252c.272 0 .494.084.666.252.172.168.258.388.258.66a.901.901 0 0 1-.258.666.901.901 0 0 1-.666.258.901.901 0 0 1-.666-.258.901.901 0 0 1-.258-.666zm4.632-4.02h.384c.456 0 .824-.112 1.104-.336.28-.224.42-.516.42-.876 0-.328-.118-.594-.354-.798-.236-.204-.546-.306-.93-.306a3 3 0 0 0-.942.156 4.737 4.737 0 0 0-.954.444V14.08c.688-.32 1.376-.48 2.064-.48.392 0 .754.054 1.086.162.332.108.614.262.846.462a2.1 2.1 0 0 1 .744 1.632c0 .432-.116.818-.348 1.158-.232.34-.548.582-.948.726.456.16.816.424 1.08.792.264.368.396.792.396 1.272 0 .344-.07.66-.21.948-.14.288-.34.534-.6.738-.26.204-.568.364-.924.48a3.8 3.8 0 0 1-1.182.174c-.72 0-1.452-.176-2.196-.528v-1.428c.688.448 1.352.672 1.992.672.456 0 .826-.11 1.11-.33.284-.22.426-.51.426-.87 0-.368-.146-.668-.438-.9-.292-.232-.678-.348-1.158-.348h-.468V17.2zm4.824.672c0-.632.076-1.21.228-1.734a4.35 4.35 0 0 1 .636-1.35 2.95 2.95 0 0 1 .978-.876c.38-.208.802-.312 1.266-.312.456 0 .874.104 1.254.312.38.208.706.5.978.876s.484.826.636 1.35a6.21 6.21 0 0 1 .228 1.734 6.21 6.21 0 0 1-.228 1.734 4.35 4.35 0 0 1-.636 1.35 2.95 2.95 0 0 1-.978.876c-.38.208-.798.312-1.254.312-.464 0-.886-.104-1.266-.312a2.95 2.95 0 0 1-.978-.876 4.35 4.35 0 0 1-.636-1.35 6.21 6.21 0 0 1-.228-1.734zm1.548 0c0 .448.036.854.108 1.218.072.364.176.674.312.93s.3.454.492.594c.192.14.408.21.648.21.232 0 .444-.07.636-.21a1.71 1.71 0 0 0 .492-.594 3.38 3.38 0 0 0 .312-.93c.072-.364.108-.77.108-1.218 0-.448-.036-.854-.108-1.218a3.38 3.38 0 0 0-.312-.93 1.71 1.71 0 0 0-.492-.594 1.055 1.055 0 0 0-.636-.21c-.24 0-.456.07-.648.21a1.71 1.71 0 0 0-.492.594 3.38 3.38 0 0 0-.312.93c-.072.364-.108.77-.108 1.218zm9.012-4.128h2.916c.416 0 .802.066 1.158.198.356.132.66.314.912.546.252.232.45.51.594.834.144.324.216.682.216 1.074s-.072.75-.216 1.074a2.499 2.499 0 0 1-.594.834 2.653 2.653 0 0 1-.912.54 3.398 3.398 0 0 1-1.158.192h-1.38V22h-1.536v-8.256zm1.536 4.044h1.164c.448 0 .812-.128 1.092-.384s.42-.592.42-1.008c0-.424-.14-.764-.42-1.02-.28-.256-.644-.384-1.092-.384h-1.164v2.796zm5.772-4.044h1.356l2.652 3.684 2.64-3.684h1.38V22h-1.476v-5.748l-2.076 2.892h-.948l-2.052-2.892V22H44.78v-8.256z"/></g></g><g fill-rule="nonzero" mask="url(#b)"><g transform="translate(98 301)"><rect width="63" height="35" x=".5" y=".5" fill="#FFF" stroke="#F0F0F5" rx="4"/><path fill="#14BEF0" d="M15.596 15.064h-2.988V16.9c.136-.016.266-.03.39-.042.124-.012.246-.018.366-.018.392 0 .754.062 1.086.186.332.124.614.296.846.516.232.22.414.488.546.804.132.316.198.666.198 1.05a2.628 2.628 0 0 1-.858 1.974c-.268.244-.59.434-.966.57a3.647 3.647 0 0 1-1.248.204 4.345 4.345 0 0 1-1.944-.468v-1.464c.608.408 1.208.612 1.8.612.24 0 .46-.034.66-.102.2-.068.372-.166.516-.294a1.352 1.352 0 0 0 .456-1.032A1.307 1.307 0 0 0 14 18.394a1.625 1.625 0 0 0-.516-.294c-.2-.072-.42-.108-.66-.108-.512 0-1.04.08-1.584.24v-4.488h4.356v1.32zm1.86 1.716c0-.272.086-.494.258-.666a.901.901 0 0 1 .666-.258c.272 0 .494.086.666.258a.901.901 0 0 1 .258.666.886.886 0 0 1-.258.654.901.901 0 0 1-.666.258.901.901 0 0 1-.666-.258.886.886 0 0 1-.258-.654zm0 4.44c0-.272.086-.492.258-.66a.913.913 0 0 1 .666-.252c.272 0 .494.084.666.252.172.168.258.388.258.66a.901.901 0 0 1-.258.666.901.901 0 0 1-.666.258.901.901 0 0 1-.666-.258.901.901 0 0 1-.258-.666zm6.192-1.272h-3.552v-.972l3.78-5.232h1.26v5.016h1.224v1.188h-1.224V22h-1.488v-2.052zm0-1.188v-2.868l-2.064 2.868h2.064zm8.46-3.696H29.12V16.9c.136-.016.266-.03.39-.042.124-.012.246-.018.366-.018.392 0 .754.062 1.086.186.332.124.614.296.846.516.232.22.414.488.546.804.132.316.198.666.198 1.05a2.628 2.628 0 0 1-.858 1.974c-.268.244-.59.434-.966.57a3.647 3.647 0 0 1-1.248.204 4.345 4.345 0 0 1-1.944-.468v-1.464c.608.408 1.208.612 1.8.612.24 0 .46-.034.66-.102.2-.068.372-.166.516-.294a1.352 1.352 0 0 0 .456-1.032 1.307 1.307 0 0 0-.456-1.002 1.625 1.625 0 0 0-.516-.294c-.2-.072-.42-.108-.66-.108-.512 0-1.04.08-1.584.24v-4.488h4.356v1.32zm5.364-1.32h2.916c.416 0 .802.066 1.158.198.356.132.66.314.912.546.252.232.45.51.594.834.144.324.216.682.216 1.074s-.072.75-.216 1.074a2.499 2.499 0 0 1-.594.834 2.653 2.653 0 0 1-.912.54 3.398 3.398 0 0 1-1.158.192h-1.38V22h-1.536v-8.256zm1.536 4.044h1.164c.448 0 .812-.128 1.092-.384s.42-.592.42-1.008c0-.424-.14-.764-.42-1.02-.28-.256-.644-.384-1.092-.384h-1.164v2.796zm5.772-4.044h1.356l2.652 3.684 2.64-3.684h1.38V22h-1.476v-5.748l-2.076 2.892h-.948l-2.052-2.892V22H44.78v-8.256z"/></g></g><g fill-rule="nonzero" mask="url(#b)"><g transform="translate(176 301)"><rect width="63" height="35" x=".5" y=".5" fill="#FFF" stroke="#F0F0F5" rx="4"/><path fill="#14BEF0" d="M15.38 13.744a11.177 11.177 0 0 0-1.758 1.656 7.543 7.543 0 0 0-1.098 1.692 2.334 2.334 0 0 1 1.356-.432c.384 0 .732.064 1.044.192a2.334 2.334 0 0 1 1.326 1.374c.124.324.186.678.186 1.062 0 .424-.072.81-.216 1.158a2.606 2.606 0 0 1-.612.9 2.805 2.805 0 0 1-.942.588 3.3 3.3 0 0 1-1.194.21 2.8 2.8 0 0 1-1.158-.234 2.637 2.637 0 0 1-.894-.648 2.988 2.988 0 0 1-.582-.996 3.778 3.778 0 0 1-.21-1.29c0-.888.24-1.78.72-2.676.48-.896 1.172-1.748 2.076-2.556h1.956zm-3.168 4.824c-.024.096-.04.194-.048.294-.008.1-.012.202-.012.306 0 .488.126.886.378 1.194.252.308.578.462.978.462.408 0 .744-.138 1.008-.414.264-.276.396-.63.396-1.062 0-.408-.124-.744-.372-1.008s-.576-.396-.984-.396c-.48 0-.928.208-1.344.624zm5.244-1.788c0-.272.086-.494.258-.666a.901.901 0 0 1 .666-.258c.272 0 .494.086.666.258a.901.901 0 0 1 .258.666.886.886 0 0 1-.258.654.901.901 0 0 1-.666.258.901.901 0 0 1-.666-.258.886.886 0 0 1-.258-.654zm0 4.44c0-.272.086-.492.258-.66a.913.913 0 0 1 .666-.252c.272 0 .494.084.666.252.172.168.258.388.258.66a.901.901 0 0 1-.258.666.901.901 0 0 1-.666.258.901.901 0 0 1-.666-.258.901.901 0 0 1-.258-.666zm5.616-5.784l-2.016 1.116v-1.416l2.544-1.392h1.044V22h-1.572v-6.564zm9.036-.372H29.12V16.9c.136-.016.266-.03.39-.042.124-.012.246-.018.366-.018.392 0 .754.062 1.086.186.332.124.614.296.846.516.232.22.414.488.546.804.132.316.198.666.198 1.05a2.628 2.628 0 0 1-.858 1.974c-.268.244-.59.434-.966.57a3.647 3.647 0 0 1-1.248.204 4.345 4.345 0 0 1-1.944-.468v-1.464c.608.408 1.208.612 1.8.612.24 0 .46-.034.66-.102.2-.068.372-.166.516-.294a1.352 1.352 0 0 0 .456-1.032 1.307 1.307 0 0 0-.456-1.002 1.625 1.625 0 0 0-.516-.294c-.2-.072-.42-.108-.66-.108-.512 0-1.04.08-1.584.24v-4.488h4.356v1.32zm5.364-1.32h2.916c.416 0 .802.066 1.158.198.356.132.66.314.912.546.252.232.45.51.594.834.144.324.216.682.216 1.074s-.072.75-.216 1.074a2.499 2.499 0 0 1-.594.834 2.653 2.653 0 0 1-.912.54 3.398 3.398 0 0 1-1.158.192h-1.38V22h-1.536v-8.256zm1.536 4.044h1.164c.448 0 .812-.128 1.092-.384s.42-.592.42-1.008c0-.424-.14-.764-.42-1.02-.28-.256-.644-.384-1.092-.384h-1.164v2.796zm5.772-4.044h1.356l2.652 3.684 2.64-3.684h1.38V22h-1.476v-5.748l-2.076 2.892h-.948l-2.052-2.892V22H44.78v-8.256z"/></g></g><g fill="#787887" fill-rule="nonzero" mask="url(#b)"><path d="M22.358 354.354a8.5 8.5 0 0 0 13.373 9.178c-.345-.072-.687-.16-1.027-.264-6.018-1.84-9.429-8.167-7.685-14.191a8.497 8.497 0 0 0-4.66 5.277zm6.145-5.007c-1.615 5.282 1.358 10.872 6.64 12.487a9.981 9.981 0 0 0 2.608.434.585.585 0 0 1 .436.955 10.003 10.003 0 0 1-10.624 3.18c-5.281-1.616-8.254-7.206-6.64-12.488a9.997 9.997 0 0 1 7.47-6.856.607.607 0 0 1 .67.858c-.22.455-.408.932-.56 1.43z"/></g><path fill="#414146" fill-rule="nonzero" d="M51.2 352.744h.864l4.68 6.66v-6.66h.936V361h-.864l-4.68-6.66V361H51.2v-8.256zM59.828 355h.948v6h-.948v-6zm-.12-1.74a.565.565 0 0 1 .588-.588c.176 0 .32.054.432.162.112.108.168.25.168.426a.565.565 0 0 1-.168.426.597.597 0 0 1-.432.162.565.565 0 0 1-.588-.588zm7.884 7.836c0 .392-.068.752-.204 1.08-.136.328-.328.61-.576.846a2.66 2.66 0 0 1-.882.552c-.34.132-.714.198-1.122.198-.656 0-1.32-.152-1.992-.456v-.876c.328.184.652.324.972.42.32.096.632.144.936.144.28 0 .538-.048.774-.144a1.737 1.737 0 0 0 .996-1.002c.092-.236.138-.494.138-.774v-.624c-.504.456-1.068.684-1.692.684-.4 0-.764-.078-1.092-.234a2.532 2.532 0 0 1-.846-.648 3.01 3.01 0 0 1-.552-.99 3.892 3.892 0 0 1-.198-1.272c0-.464.066-.888.198-1.272a3.01 3.01 0 0 1 .552-.99c.236-.276.518-.492.846-.648a2.51 2.51 0 0 1 1.092-.234c.304 0 .6.058.888.174.288.116.556.282.804.498V355h.96v6.096zM63.224 358c0 .344.046.66.138.948.092.288.22.534.384.738.164.204.36.364.588.48.228.116.482.174.762.174.56 0 1.072-.24 1.536-.72v-3.24c-.464-.48-.976-.72-1.536-.72-.28 0-.534.058-.762.174a1.788 1.788 0 0 0-.588.48c-.164.204-.292.45-.384.738a3.102 3.102 0 0 0-.138.948zm6.276-5.628h.948v3.288c.584-.536 1.22-.804 1.908-.804.304 0 .584.052.84.156.256.104.476.248.66.432.184.184.328.404.432.66.104.256.156.54.156.852V361h-.96v-3.912c0-.416-.126-.756-.378-1.02s-.582-.396-.99-.396a1.88 1.88 0 0 0-.858.216 2.863 2.863 0 0 0-.81.636V361H69.5v-8.628zM77.696 355h2.04v.756h-2.04v3.54c0 .312.096.566.288.762.192.196.444.294.756.294.152 0 .31-.028.474-.084.164-.056.338-.132.522-.228v.828c-.432.184-.824.276-1.176.276-.264 0-.508-.044-.732-.132a1.64 1.64 0 0 1-.948-.918 1.814 1.814 0 0 1-.132-.702v-3.636h-1.152V355h1.152v-1.692h.948V355z" mask="url(#b)"/><g fill-rule="nonzero" mask="url(#b)"><g transform="translate(20 374)"><rect width="63" height="35" x=".5" y=".5" fill="#FFF" stroke="#F0F0F5" rx="4"/><path fill="#14BEF0" d="M8.438 15.436l-2.016 1.116v-1.416l2.544-1.392h1.044V22H8.438v-6.564zm3.84 2.436c0-.632.076-1.21.228-1.734a4.35 4.35 0 0 1 .636-1.35 2.95 2.95 0 0 1 .978-.876c.38-.208.802-.312 1.266-.312.456 0 .874.104 1.254.312.38.208.706.5.978.876s.484.826.636 1.35a6.21 6.21 0 0 1 .228 1.734 6.21 6.21 0 0 1-.228 1.734 4.35 4.35 0 0 1-.636 1.35 2.95 2.95 0 0 1-.978.876c-.38.208-.798.312-1.254.312-.464 0-.886-.104-1.266-.312a2.95 2.95 0 0 1-.978-.876 4.35 4.35 0 0 1-.636-1.35 6.21 6.21 0 0 1-.228-1.734zm1.548 0c0 .448.036.854.108 1.218.072.364.176.674.312.93s.3.454.492.594c.192.14.408.21.648.21.232 0 .444-.07.636-.21a1.71 1.71 0 0 0 .492-.594 3.38 3.38 0 0 0 .312-.93c.072-.364.108-.77.108-1.218 0-.448-.036-.854-.108-1.218a3.38 3.38 0 0 0-.312-.93 1.71 1.71 0 0 0-.492-.594 1.055 1.055 0 0 0-.636-.21c-.24 0-.456.07-.648.21a1.71 1.71 0 0 0-.492.594 3.38 3.38 0 0 0-.312.93c-.072.364-.108.77-.108 1.218zm5.508-1.092c0-.272.086-.494.258-.666a.901.901 0 0 1 .666-.258c.272 0 .494.086.666.258a.901.901 0 0 1 .258.666.886.886 0 0 1-.258.654.901.901 0 0 1-.666.258.901.901 0 0 1-.666-.258.886.886 0 0 1-.258-.654zm0 4.44c0-.272.086-.492.258-.66a.913.913 0 0 1 .666-.252c.272 0 .494.084.666.252.172.168.258.388.258.66a.901.901 0 0 1-.258.666.901.901 0 0 1-.666.258.901.901 0 0 1-.666-.258.901.901 0 0 1-.258-.666zm8.616-5.784l-2.016 1.116v-1.416l2.544-1.392h1.044V22H27.95v-6.564zm9.036-.372h-2.988V16.9c.136-.016.266-.03.39-.042.124-.012.246-.018.366-.018.392 0 .754.062 1.086.186.332.124.614.296.846.516.232.22.414.488.546.804.132.316.198.666.198 1.05a2.628 2.628 0 0 1-.858 1.974c-.268.244-.59.434-.966.57a3.647 3.647 0 0 1-1.248.204 4.345 4.345 0 0 1-1.944-.468v-1.464c.608.408 1.208.612 1.8.612.24 0 .46-.034.66-.102.2-.068.372-.166.516-.294a1.352 1.352 0 0 0 .456-1.032 1.307 1.307 0 0 0-.456-1.002 1.625 1.625 0 0 0-.516-.294c-.2-.072-.42-.108-.66-.108-.512 0-1.04.08-1.584.24v-4.488h4.356v1.32zm5.364-1.32h2.916c.416 0 .802.066 1.158.198.356.132.66.314.912.546.252.232.45.51.594.834.144.324.216.682.216 1.074s-.072.75-.216 1.074a2.499 2.499 0 0 1-.594.834 2.653 2.653 0 0 1-.912.54 3.398 3.398 0 0 1-1.158.192h-1.38V22H42.35v-8.256zm1.536 4.044h1.164c.448 0 .812-.128 1.092-.384s.42-.592.42-1.008c0-.424-.14-.764-.42-1.02-.28-.256-.644-.384-1.092-.384h-1.164v2.796zm5.772-4.044h1.356l2.652 3.684 2.64-3.684h1.38V22H56.21v-5.748l-2.076 2.892h-.948l-2.052-2.892V22h-1.476v-8.256z"/></g></g><g fill-rule="nonzero" mask="url(#b)"><g transform="translate(98 374)"><rect width="63" height="35" x=".5" y=".5" fill="#FFF" stroke="#F0F0F5" rx="4"/><path fill="#14BEF0" d="M9.938 15.436l-2.016 1.116v-1.416l2.544-1.392h1.044V22H9.938v-6.564zm3.84 2.436c0-.632.076-1.21.228-1.734a4.35 4.35 0 0 1 .636-1.35 2.95 2.95 0 0 1 .978-.876c.38-.208.802-.312 1.266-.312.456 0 .874.104 1.254.312.38.208.706.5.978.876s.484.826.636 1.35a6.21 6.21 0 0 1 .228 1.734 6.21 6.21 0 0 1-.228 1.734 4.35 4.35 0 0 1-.636 1.35 2.95 2.95 0 0 1-.978.876c-.38.208-.798.312-1.254.312-.464 0-.886-.104-1.266-.312a2.95 2.95 0 0 1-.978-.876 4.35 4.35 0 0 1-.636-1.35 6.21 6.21 0 0 1-.228-1.734zm1.548 0c0 .448.036.854.108 1.218.072.364.176.674.312.93s.3.454.492.594c.192.14.408.21.648.21.232 0 .444-.07.636-.21a1.71 1.71 0 0 0 .492-.594 3.38 3.38 0 0 0 .312-.93c.072-.364.108-.77.108-1.218 0-.448-.036-.854-.108-1.218a3.38 3.38 0 0 0-.312-.93 1.71 1.71 0 0 0-.492-.594 1.055 1.055 0 0 0-.636-.21c-.24 0-.456.07-.648.21a1.71 1.71 0 0 0-.492.594 3.38 3.38 0 0 0-.312.93c-.072.364-.108.77-.108 1.218zm5.508-1.092c0-.272.086-.494.258-.666a.901.901 0 0 1 .666-.258c.272 0 .494.086.666.258a.901.901 0 0 1 .258.666.886.886 0 0 1-.258.654.901.901 0 0 1-.666.258.901.901 0 0 1-.666-.258.886.886 0 0 1-.258-.654zm0 4.44c0-.272.086-.492.258-.66a.913.913 0 0 1 .666-.252c.272 0 .494.084.666.252.172.168.258.388.258.66a.901.901 0 0 1-.258.666.901.901 0 0 1-.666.258.901.901 0 0 1-.666-.258.901.901 0 0 1-.258-.666zm4.632-4.02h.384c.456 0 .824-.112 1.104-.336.28-.224.42-.516.42-.876 0-.328-.118-.594-.354-.798-.236-.204-.546-.306-.93-.306a3 3 0 0 0-.942.156 4.737 4.737 0 0 0-.954.444V14.08c.688-.32 1.376-.48 2.064-.48.392 0 .754.054 1.086.162.332.108.614.262.846.462a2.1 2.1 0 0 1 .744 1.632c0 .432-.116.818-.348 1.158-.232.34-.548.582-.948.726.456.16.816.424 1.08.792.264.368.396.792.396 1.272 0 .344-.07.66-.21.948-.14.288-.34.534-.6.738-.26.204-.568.364-.924.48a3.8 3.8 0 0 1-1.182.174c-.72 0-1.452-.176-2.196-.528v-1.428c.688.448 1.352.672 1.992.672.456 0 .826-.11 1.11-.33.284-.22.426-.51.426-.87 0-.368-.146-.668-.438-.9-.292-.232-.678-.348-1.158-.348h-.468V17.2zm4.824.672c0-.632.076-1.21.228-1.734a4.35 4.35 0 0 1 .636-1.35 2.95 2.95 0 0 1 .978-.876c.38-.208.802-.312 1.266-.312.456 0 .874.104 1.254.312.38.208.706.5.978.876s.484.826.636 1.35a6.21 6.21 0 0 1 .228 1.734 6.21 6.21 0 0 1-.228 1.734 4.35 4.35 0 0 1-.636 1.35 2.95 2.95 0 0 1-.978.876c-.38.208-.798.312-1.254.312-.464 0-.886-.104-1.266-.312a2.95 2.95 0 0 1-.978-.876 4.35 4.35 0 0 1-.636-1.35 6.21 6.21 0 0 1-.228-1.734zm1.548 0c0 .448.036.854.108 1.218.072.364.176.674.312.93s.3.454.492.594c.192.14.408.21.648.21.232 0 .444-.07.636-.21a1.71 1.71 0 0 0 .492-.594 3.38 3.38 0 0 0 .312-.93c.072-.364.108-.77.108-1.218 0-.448-.036-.854-.108-1.218a3.38 3.38 0 0 0-.312-.93 1.71 1.71 0 0 0-.492-.594 1.055 1.055 0 0 0-.636-.21c-.24 0-.456.07-.648.21a1.71 1.71 0 0 0-.492.594 3.38 3.38 0 0 0-.312.93c-.072.364-.108.77-.108 1.218zm9.012-4.128h2.916c.416 0 .802.066 1.158.198.356.132.66.314.912.546.252.232.45.51.594.834.144.324.216.682.216 1.074s-.072.75-.216 1.074a2.499 2.499 0 0 1-.594.834 2.653 2.653 0 0 1-.912.54 3.398 3.398 0 0 1-1.158.192h-1.38V22H40.85v-8.256zm1.536 4.044h1.164c.448 0 .812-.128 1.092-.384s.42-.592.42-1.008c0-.424-.14-.764-.42-1.02-.28-.256-.644-.384-1.092-.384h-1.164v2.796zm5.772-4.044h1.356l2.652 3.684 2.64-3.684h1.38V22H54.71v-5.748l-2.076 2.892h-.948l-2.052-2.892V22h-1.476v-8.256z"/></g></g><g fill-rule="nonzero" mask="url(#b)"><g transform="translate(176 374)"><rect width="63" height="35" x=".5" y=".5" fill="#FFF" stroke="#F0F0F5" rx="4"/><path fill="#14BEF0" d="M9.938 15.436l-2.016 1.116v-1.416l2.544-1.392h1.044V22H9.938v-6.564zm6.756 0l-2.016 1.116v-1.416l2.544-1.392h1.044V22h-1.572v-6.564zm4.14 1.344c0-.272.086-.494.258-.666a.901.901 0 0 1 .666-.258c.272 0 .494.086.666.258a.901.901 0 0 1 .258.666.886.886 0 0 1-.258.654.901.901 0 0 1-.666.258.901.901 0 0 1-.666-.258.886.886 0 0 1-.258-.654zm0 4.44c0-.272.086-.492.258-.66a.913.913 0 0 1 .666-.252c.272 0 .494.084.666.252.172.168.258.388.258.66a.901.901 0 0 1-.258.666.901.901 0 0 1-.666.258.901.901 0 0 1-.666-.258.901.901 0 0 1-.258-.666zm2.7-3.348c0-.632.076-1.21.228-1.734a4.35 4.35 0 0 1 .636-1.35 2.95 2.95 0 0 1 .978-.876c.38-.208.802-.312 1.266-.312.456 0 .874.104 1.254.312.38.208.706.5.978.876s.484.826.636 1.35a6.21 6.21 0 0 1 .228 1.734 6.21 6.21 0 0 1-.228 1.734 4.35 4.35 0 0 1-.636 1.35 2.95 2.95 0 0 1-.978.876c-.38.208-.798.312-1.254.312-.464 0-.886-.104-1.266-.312a2.95 2.95 0 0 1-.978-.876 4.35 4.35 0 0 1-.636-1.35 6.21 6.21 0 0 1-.228-1.734zm1.548 0c0 .448.036.854.108 1.218.072.364.176.674.312.93s.3.454.492.594c.192.14.408.21.648.21.232 0 .444-.07.636-.21a1.71 1.71 0 0 0 .492-.594 3.38 3.38 0 0 0 .312-.93c.072-.364.108-.77.108-1.218 0-.448-.036-.854-.108-1.218a3.38 3.38 0 0 0-.312-.93 1.71 1.71 0 0 0-.492-.594 1.055 1.055 0 0 0-.636-.21c-.24 0-.456.07-.648.21a1.71 1.71 0 0 0-.492.594 3.38 3.38 0 0 0-.312.93c-.072.364-.108.77-.108 1.218zm5.208 0c0-.632.076-1.21.228-1.734a4.35 4.35 0 0 1 .636-1.35 2.95 2.95 0 0 1 .978-.876c.38-.208.802-.312 1.266-.312.456 0 .874.104 1.254.312.38.208.706.5.978.876s.484.826.636 1.35a6.21 6.21 0 0 1 .228 1.734 6.21 6.21 0 0 1-.228 1.734 4.35 4.35 0 0 1-.636 1.35 2.95 2.95 0 0 1-.978.876c-.38.208-.798.312-1.254.312-.464 0-.886-.104-1.266-.312a2.95 2.95 0 0 1-.978-.876 4.35 4.35 0 0 1-.636-1.35 6.21 6.21 0 0 1-.228-1.734zm1.548 0c0 .448.036.854.108 1.218.072.364.176.674.312.93s.3.454.492.594c.192.14.408.21.648.21.232 0 .444-.07.636-.21a1.71 1.71 0 0 0 .492-.594 3.38 3.38 0 0 0 .312-.93c.072-.364.108-.77.108-1.218 0-.448-.036-.854-.108-1.218a3.38 3.38 0 0 0-.312-.93 1.71 1.71 0 0 0-.492-.594 1.055 1.055 0 0 0-.636-.21c-.24 0-.456.07-.648.21a1.71 1.71 0 0 0-.492.594 3.38 3.38 0 0 0-.312.93c-.072.364-.108.77-.108 1.218zm9.012-4.128h2.916c.416 0 .802.066 1.158.198.356.132.66.314.912.546.252.232.45.51.594.834.144.324.216.682.216 1.074s-.072.75-.216 1.074a2.499 2.499 0 0 1-.594.834 2.653 2.653 0 0 1-.912.54 3.398 3.398 0 0 1-1.158.192h-1.38V22H40.85v-8.256zm1.536 4.044h1.164c.448 0 .812-.128 1.092-.384s.42-.592.42-1.008c0-.424-.14-.764-.42-1.02-.28-.256-.644-.384-1.092-.384h-1.164v2.796zm5.772-4.044h1.356l2.652 3.684 2.64-3.684h1.38V22H54.71v-5.748l-2.076 2.892h-.948l-2.052-2.892V22h-1.476v-8.256z"/></g></g></g><g transform="translate(17 70)"><use fill="#000" filter="url(#c)" xlink:href="#d"/><use fill="#FFF" xlink:href="#d"/></g><g transform="translate(17 70)"><use fill="#000" filter="url(#e)" xlink:href="#f"/><use fill="#FFF" xlink:href="#f"/></g><g transform="translate(17 70)"><use fill="#000" filter="url(#g)" xlink:href="#h"/><use fill="#FFF" xlink:href="#h"/></g><path fill="#414146" fill-rule="nonzero" d="M58.168 82.536H55.48v-.792h6.336v.792H59.14V90h-.972v-7.464zM62.692 87c0-.464.07-.888.21-1.272.14-.384.338-.714.594-.99.256-.276.562-.492.918-.648a2.883 2.883 0 0 1 1.17-.234c.424 0 .812.078 1.164.234.352.156.656.372.912.648s.456.606.6.99c.144.384.216.808.216 1.272 0 .464-.072.888-.216 1.272a2.97 2.97 0 0 1-.6.99c-.256.276-.56.492-.912.648-.352.156-.74.234-1.164.234-.424 0-.814-.078-1.17-.234a2.732 2.732 0 0 1-.918-.648 2.894 2.894 0 0 1-.594-.99 3.69 3.69 0 0 1-.21-1.272zm.972 0c0 .344.048.66.144.948.096.288.228.536.396.744a1.73 1.73 0 0 0 1.38.66c.28 0 .536-.058.768-.174.232-.116.432-.278.6-.486.168-.208.3-.456.396-.744.096-.288.144-.604.144-.948s-.048-.66-.144-.948a2.358 2.358 0 0 0-.396-.744 1.799 1.799 0 0 0-.6-.486 1.693 1.693 0 0 0-.768-.174 1.73 1.73 0 0 0-1.38.66c-.168.208-.3.456-.396.744a2.983 2.983 0 0 0-.144.948zm6.804 0c0 .344.046.66.138.948.092.288.22.534.384.738.164.204.36.364.588.48.228.116.482.174.762.174.56 0 1.072-.24 1.536-.72v-3.24c-.464-.48-.976-.72-1.536-.72-.28 0-.534.058-.762.174a1.788 1.788 0 0 0-.588.48c-.164.204-.292.45-.384.738a3.102 3.102 0 0 0-.138.948zm4.368 3h-.96v-.54c-.504.456-1.068.684-1.692.684-.4 0-.764-.078-1.092-.234a2.532 2.532 0 0 1-.846-.648 3.01 3.01 0 0 1-.552-.99A3.892 3.892 0 0 1 69.496 87c0-.464.066-.888.198-1.272a3.01 3.01 0 0 1 .552-.99c.236-.276.518-.492.846-.648a2.51 2.51 0 0 1 1.092-.234c.304 0 .6.058.888.174.288.116.556.282.804.498v-3.156h.96V90zm5.244-.624a3.091 3.091 0 0 1-.918.576 2.673 2.673 0 0 1-.99.192 2.19 2.19 0 0 1-.762-.126 1.737 1.737 0 0 1-.588-.354 1.623 1.623 0 0 1-.522-1.236c0-.304.07-.582.21-.834.14-.252.334-.47.582-.654.248-.184.546-.326.894-.426.348-.1.734-.15 1.158-.15.32 0 .632.012.936.036v-.516c0-.376-.128-.682-.384-.918s-.588-.354-.996-.354c-.608 0-1.236.18-1.884.54v-.828c.672-.312 1.332-.468 1.98-.468.328 0 .628.05.9.15a1.92 1.92 0 0 1 1.146 1.062c.108.248.162.52.162.816V90h-.924v-.624zm-2.82-1.056a1 1 0 0 0 .324.768c.216.2.496.3.84.3.28 0 .562-.072.846-.216.284-.144.554-.344.81-.6v-1.524a7.859 7.859 0 0 0-.888-.048c-.576 0-1.042.122-1.398.366-.356.244-.534.562-.534.954zm6.984 4.308h-.936l1.128-2.784L82.108 84h.984l1.788 4.692L86.692 84h.972l-3.42 8.628z"/><path fill="#01A400" fill-rule="nonzero" d="M34.06 105.44a30.69 30.69 0 0 0 1.52-1.47c.413-.433.747-.823 1-1.17s.437-.658.55-.935a2.06 2.06 0 0 0 .17-.775c0-.42-.125-.757-.375-1.01s-.572-.38-.965-.38c-.28 0-.567.055-.86.165-.293.11-.587.282-.88.515v-.8c.62-.387 1.253-.58 1.9-.58.293 0 .563.048.81.145.247.097.458.232.635.405.177.173.315.38.415.62.1.24.15.503.15.79 0 .273-.053.557-.16.85a4.528 4.528 0 0 1-.51.96c-.233.347-.54.728-.92 1.145-.38.417-.843.882-1.39 1.395h3.08v.69h-4.17v-.56zm8.44-1.35h-3.11v-.53l3.24-4.44h.66v4.34h1.09v.63h-1.09V106h-.79v-1.91zm0-.63v-3.14l-2.27 3.14h2.27zm5.27 1.55c.467.313.933.47 1.4.47.3 0 .55-.075.75-.225.2-.15.3-.348.3-.595a.571.571 0 0 0-.19-.455 1.689 1.689 0 0 0-.47-.28 7.967 7.967 0 0 0-.61-.22 2.98 2.98 0 0 1-.61-.27 1.55 1.55 0 0 1-.47-.425c-.127-.173-.19-.403-.19-.69a1.31 1.31 0 0 1 .49-1.04c.153-.127.337-.225.55-.295.213-.07.447-.105.7-.105.447 0 .893.097 1.34.29v.74c-.42-.26-.847-.39-1.28-.39-.3 0-.543.072-.73.215a.678.678 0 0 0-.28.565c0 .187.063.333.19.44.127.107.283.197.47.27.187.073.39.145.61.215.22.07.423.16.61.27.187.11.343.255.47.435.127.18.19.417.19.71 0 .22-.043.42-.13.6-.087.18-.21.335-.37.465s-.35.232-.57.305c-.22.073-.46.11-.72.11-.48 0-.963-.117-1.45-.35v-.76zm4.46-6.2h.79V106h-.79v-7.19zm2.02 4.69c0-.387.058-.74.175-1.06.117-.32.282-.595.495-.825.213-.23.468-.41.765-.54.297-.13.622-.195.975-.195s.677.065.97.195c.293.13.547.31.76.54.213.23.38.505.5.825.12.32.18.673.18 1.06s-.06.74-.18 1.06a2.48 2.48 0 0 1-.5.825 2.29 2.29 0 0 1-.76.54c-.293.13-.617.195-.97.195s-.678-.065-.975-.195a2.277 2.277 0 0 1-.765-.54 2.411 2.411 0 0 1-.495-.825 3.075 3.075 0 0 1-.175-1.06zm.81 0c0 .287.04.55.12.79.08.24.19.447.33.62s.308.308.505.405c.197.097.412.145.645.145.233 0 .447-.048.64-.145a1.51 1.51 0 0 0 .5-.405c.14-.173.25-.38.33-.62.08-.24.12-.503.12-.79 0-.287-.04-.55-.12-.79-.08-.24-.19-.447-.33-.62a1.499 1.499 0 0 0-.5-.405 1.41 1.41 0 0 0-.64-.145 1.442 1.442 0 0 0-1.15.55c-.14.173-.25.38-.33.62-.08.24-.12.503-.12.79zm6.39-2.5h1.7v.63h-1.7v2.95c0 .26.08.472.24.635.16.163.37.245.63.245.127 0 .258-.023.395-.07a3.15 3.15 0 0 0 .435-.19v.69c-.36.153-.687.23-.98.23-.22 0-.423-.037-.61-.11a1.367 1.367 0 0 1-.79-.765 1.512 1.512 0 0 1-.11-.585v-3.03h-.96V101h.96v-1.41h.79V101zm2.65 4.01c.467.313.933.47 1.4.47.3 0 .55-.075.75-.225.2-.15.3-.348.3-.595a.571.571 0 0 0-.19-.455 1.689 1.689 0 0 0-.47-.28 7.967 7.967 0 0 0-.61-.22 2.98 2.98 0 0 1-.61-.27 1.55 1.55 0 0 1-.47-.425c-.127-.173-.19-.403-.19-.69a1.31 1.31 0 0 1 .49-1.04c.153-.127.337-.225.55-.295.213-.07.447-.105.7-.105.447 0 .893.097 1.34.29v.74c-.42-.26-.847-.39-1.28-.39-.3 0-.543.072-.73.215a.678.678 0 0 0-.28.565c0 .187.063.333.19.44.127.107.283.197.47.27.187.073.39.145.61.215.22.07.423.16.61.27.187.11.343.255.47.435.127.18.19.417.19.71 0 .22-.043.42-.13.6-.087.18-.21.335-.37.465s-.35.232-.57.305c-.22.073-.46.11-.72.11-.48 0-.963-.117-1.45-.35v-.76zm9.74.47a2.59 2.59 0 0 1-.765.48c-.27.107-.545.16-.825.16-.233 0-.445-.035-.635-.105a1.447 1.447 0 0 1-.49-.295 1.353 1.353 0 0 1-.435-1.03c0-.253.058-.485.175-.695a1.71 1.71 0 0 1 .485-.545 2.31 2.31 0 0 1 .745-.355c.29-.083.612-.125.965-.125.267 0 .527.01.78.03v-.43a.993.993 0 0 0-.32-.765c-.213-.197-.49-.295-.83-.295-.507 0-1.03.15-1.57.45v-.69c.56-.26 1.11-.39 1.65-.39.273 0 .523.042.75.125a1.6 1.6 0 0 1 .955.885c.09.207.135.433.135.68V106h-.77v-.52zm-2.35-.88c0 .26.09.473.27.64.18.167.413.25.7.25.233 0 .468-.06.705-.18a2.66 2.66 0 0 0 .675-.5v-1.27a6.549 6.549 0 0 0-.74-.04c-.48 0-.868.102-1.165.305-.297.203-.445.468-.445.795zm6.68 1.4h-.65l-1.99-5h.82l1.49 3.91 1.51-3.91h.81l-1.99 5zm5.74-.52a2.59 2.59 0 0 1-.765.48c-.27.107-.545.16-.825.16-.233 0-.445-.035-.635-.105a1.447 1.447 0 0 1-.49-.295 1.353 1.353 0 0 1-.435-1.03c0-.253.058-.485.175-.695a1.71 1.71 0 0 1 .485-.545 2.31 2.31 0 0 1 .745-.355c.29-.083.612-.125.965-.125.267 0 .527.01.78.03v-.43a.993.993 0 0 0-.32-.765c-.213-.197-.49-.295-.83-.295-.507 0-1.03.15-1.57.45v-.69c.56-.26 1.11-.39 1.65-.39.273 0 .523.042.75.125a1.6 1.6 0 0 1 .955.885c.09.207.135.433.135.68V106h-.77v-.52zm-2.35-.88c0 .26.09.473.27.64.18.167.413.25.7.25.233 0 .468-.06.705-.18a2.66 2.66 0 0 0 .675-.5v-1.27a6.549 6.549 0 0 0-.74-.04c-.48 0-.868.102-1.165.305-.297.203-.445.468-.445.795zm4.67-3.6h.79v5h-.79v-5zm-.1-1.45a.47.47 0 0 1 .49-.49c.147 0 .267.045.36.135a.47.47 0 0 1 .14.355.47.47 0 0 1-.14.355.497.497 0 0 1-.36.135.47.47 0 0 1-.49-.49zm2.49-.74h.79V106h-.79v-7.19zm5.17 6.67a2.59 2.59 0 0 1-.765.48c-.27.107-.545.16-.825.16-.233 0-.445-.035-.635-.105a1.447 1.447 0 0 1-.49-.295 1.353 1.353 0 0 1-.435-1.03c0-.253.058-.485.175-.695a1.71 1.71 0 0 1 .485-.545 2.31 2.31 0 0 1 .745-.355c.29-.083.612-.125.965-.125.267 0 .527.01.78.03v-.43a.993.993 0 0 0-.32-.765c-.213-.197-.49-.295-.83-.295-.507 0-1.03.15-1.57.45v-.69c.56-.26 1.11-.39 1.65-.39.273 0 .523.042.75.125a1.6 1.6 0 0 1 .955.885c.09.207.135.433.135.68V106h-.77v-.52zm-2.35-.88c0 .26.09.473.27.64.18.167.413.25.7.25.233 0 .468-.06.705-.18a2.66 2.66 0 0 0 .675-.5v-1.27a6.549 6.549 0 0 0-.74-.04c-.48 0-.868.102-1.165.305-.297.203-.445.468-.445.795zm8.3-1.1c0-.287-.038-.55-.115-.79a1.886 1.886 0 0 0-.32-.615 1.49 1.49 0 0 0-.49-.4 1.358 1.358 0 0 0-.625-.145c-.46 0-.89.2-1.29.6v2.7c.4.4.83.6 1.29.6.227 0 .435-.048.625-.145.19-.097.353-.23.49-.4s.243-.375.32-.615c.077-.24.115-.503.115-.79zm-3.63-4.69h.79v2.63c.433-.373.903-.56 1.41-.56a2.101 2.101 0 0 1 1.62.735c.2.23.355.505.465.825.11.32.165.673.165 1.06s-.055.74-.165 1.06a2.46 2.46 0 0 1-.465.825 2.101 2.101 0 0 1-1.62.735c-.507 0-.977-.19-1.41-.57v.45h-.79v-7.19zm5.67 0h.79V106h-.79v-7.19zm2.02 4.65c0-.38.058-.727.175-1.04a2.57 2.57 0 0 1 .48-.815c.203-.23.447-.408.73-.535.283-.127.595-.19.935-.19.307 0 .585.06.835.18s.465.288.645.505c.18.217.318.475.415.775.097.3.145.63.145.99v.175c0 .057-.003.115-.01.175h-3.55c.007.267.057.512.15.735.093.223.217.415.37.575.153.16.335.283.545.37.21.087.438.13.685.13a2.3 2.3 0 0 0 .725-.125 3.53 3.53 0 0 0 .745-.355v.72a3.48 3.48 0 0 1-1.57.39c-.36 0-.69-.065-.99-.195a2.25 2.25 0 0 1-.775-.55 2.534 2.534 0 0 1-.505-.84 3.07 3.07 0 0 1-.18-1.075zm3.58-.34c-.007-.48-.128-.868-.365-1.165a1.128 1.128 0 0 0-.925-.445c-.42 0-.765.148-1.035.445-.27.297-.422.685-.455 1.165h2.78z"/><path fill="#414146" fill-rule="nonzero" d="M167.456 82.536h-2.688v-.792h6.336v.792h-2.676V90h-.972v-7.464zM171.98 87c0-.464.07-.888.21-1.272.14-.384.338-.714.594-.99.256-.276.562-.492.918-.648a2.883 2.883 0 0 1 1.17-.234c.424 0 .812.078 1.164.234.352.156.656.372.912.648s.456.606.6.99c.144.384.216.808.216 1.272 0 .464-.072.888-.216 1.272a2.97 2.97 0 0 1-.6.99c-.256.276-.56.492-.912.648-.352.156-.74.234-1.164.234-.424 0-.814-.078-1.17-.234a2.732 2.732 0 0 1-.918-.648 2.894 2.894 0 0 1-.594-.99 3.69 3.69 0 0 1-.21-1.272zm.972 0c0 .344.048.66.144.948.096.288.228.536.396.744a1.73 1.73 0 0 0 1.38.66c.28 0 .536-.058.768-.174.232-.116.432-.278.6-.486.168-.208.3-.456.396-.744.096-.288.144-.604.144-.948s-.048-.66-.144-.948a2.357 2.357 0 0 0-.396-.744 1.799 1.799 0 0 0-.6-.486 1.693 1.693 0 0 0-.768-.174 1.73 1.73 0 0 0-1.38.66c-.168.208-.3.456-.396.744a2.983 2.983 0 0 0-.144.948zm6.276-3h.948v.624c.576-.512 1.188-.768 1.836-.768.384 0 .724.08 1.02.24.296.16.524.392.684.696.64-.624 1.328-.936 2.064-.936.288 0 .55.048.786.144.236.096.438.232.606.408.168.176.3.386.396.63.096.244.144.514.144.81V90h-.96v-4.02c0-.384-.112-.698-.336-.942-.224-.244-.516-.366-.876-.366-.264 0-.532.07-.804.21-.272.14-.536.346-.792.618V90h-.948v-4.02c0-.384-.114-.698-.342-.942-.228-.244-.522-.366-.882-.366-.264 0-.532.07-.804.21-.272.14-.536.346-.792.618V90h-.948v-6zm9.9 3c0-.464.07-.888.21-1.272.14-.384.338-.714.594-.99.256-.276.562-.492.918-.648a2.883 2.883 0 0 1 1.17-.234c.424 0 .812.078 1.164.234.352.156.656.372.912.648s.456.606.6.99c.144.384.216.808.216 1.272 0 .464-.072.888-.216 1.272a2.97 2.97 0 0 1-.6.99c-.256.276-.56.492-.912.648-.352.156-.74.234-1.164.234-.424 0-.814-.078-1.17-.234a2.732 2.732 0 0 1-.918-.648 2.894 2.894 0 0 1-.594-.99 3.69 3.69 0 0 1-.21-1.272zm.972 0c0 .344.048.66.144.948.096.288.228.536.396.744a1.73 1.73 0 0 0 1.38.66c.28 0 .536-.058.768-.174.232-.116.432-.278.6-.486.168-.208.3-.456.396-.744.096-.288.144-.604.144-.948s-.048-.66-.144-.948a2.357 2.357 0 0 0-.396-.744 1.799 1.799 0 0 0-.6-.486 1.693 1.693 0 0 0-.768-.174 1.73 1.73 0 0 0-1.38.66c-.168.208-.3.456-.396.744a2.983 2.983 0 0 0-.144.948zm6.276-3h.948v.72c.232-.28.492-.494.78-.642.288-.148.58-.222.876-.222.2 0 .396.028.588.084v.864a2.232 2.232 0 0 0-.636-.096c-.28 0-.56.08-.84.24-.28.16-.536.392-.768.696V90h-.948v-6zm4.512 0h.948v.72c.232-.28.492-.494.78-.642.288-.148.58-.222.876-.222.2 0 .396.028.588.084v.864a2.232 2.232 0 0 0-.636-.096c-.28 0-.56.08-.84.24-.28.16-.536.392-.768.696V90h-.948v-6zm4.068 3c0-.464.07-.888.21-1.272.14-.384.338-.714.594-.99.256-.276.562-.492.918-.648a2.883 2.883 0 0 1 1.17-.234c.424 0 .812.078 1.164.234.352.156.656.372.912.648s.456.606.6.99c.144.384.216.808.216 1.272 0 .464-.072.888-.216 1.272a2.97 2.97 0 0 1-.6.99c-.256.276-.56.492-.912.648-.352.156-.74.234-1.164.234-.424 0-.814-.078-1.17-.234a2.732 2.732 0 0 1-.918-.648 2.894 2.894 0 0 1-.594-.99 3.69 3.69 0 0 1-.21-1.272zm.972 0c0 .344.048.66.144.948.096.288.228.536.396.744a1.73 1.73 0 0 0 1.38.66c.28 0 .536-.058.768-.174.232-.116.432-.278.6-.486.168-.208.3-.456.396-.744.096-.288.144-.604.144-.948s-.048-.66-.144-.948a2.357 2.357 0 0 0-.396-.744 1.799 1.799 0 0 0-.6-.486 1.693 1.693 0 0 0-.768-.174 1.73 1.73 0 0 0-1.38.66c-.168.208-.3.456-.396.744a2.983 2.983 0 0 0-.144.948zm12.36 3h-.852l-1.524-4.776L214.388 90h-.852l-2.04-6h.948l1.524 4.776L215.492 84h.852l1.512 4.776L219.38 84h.948l-2.04 6z"/><path fill="#01A400" fill-rule="nonzero" d="M155.06 105.44a30.69 30.69 0 0 0 1.52-1.47c.413-.433.747-.823 1-1.17s.437-.658.55-.935a2.06 2.06 0 0 0 .17-.775c0-.42-.125-.757-.375-1.01s-.572-.38-.965-.38c-.28 0-.567.055-.86.165-.293.11-.587.282-.88.515v-.8c.62-.387 1.253-.58 1.9-.58.293 0 .563.048.81.145.247.097.458.232.635.405.177.173.315.38.415.62.1.24.15.503.15.79 0 .273-.053.557-.16.85a4.528 4.528 0 0 1-.51.96c-.233.347-.54.728-.92 1.145-.38.417-.843.882-1.39 1.395h3.08v.69h-4.17v-.56zm6.91-3.26h.34c.227 0 .437-.032.63-.095s.358-.152.495-.265a1.178 1.178 0 0 0 .435-.93c0-.36-.128-.652-.385-.875-.257-.223-.585-.335-.985-.335-.527 0-1.057.167-1.59.5v-.76a3.626 3.626 0 0 1 1.67-.42c.307 0 .59.045.85.135.26.09.483.215.67.375a1.675 1.675 0 0 1 .59 1.31c0 .38-.108.717-.325 1.01-.217.293-.512.5-.885.62.42.133.752.36.995.68.243.32.365.69.365 1.11a1.685 1.685 0 0 1-.65 1.35 2.308 2.308 0 0 1-.735.39c-.283.093-.598.14-.945.14-.587 0-1.173-.153-1.76-.46v-.78c.553.373 1.113.56 1.68.56.233 0 .447-.032.64-.095s.36-.15.5-.26a1.141 1.141 0 0 0 .44-.915c0-.2-.04-.382-.12-.545a1.214 1.214 0 0 0-.34-.42 1.67 1.67 0 0 0-.525-.275 2.123 2.123 0 0 0-.665-.1h-.39v-.65zm6.8 2.83c.467.313.933.47 1.4.47.3 0 .55-.075.75-.225.2-.15.3-.348.3-.595a.571.571 0 0 0-.19-.455 1.689 1.689 0 0 0-.47-.28 7.967 7.967 0 0 0-.61-.22 2.98 2.98 0 0 1-.61-.27 1.55 1.55 0 0 1-.47-.425c-.127-.173-.19-.403-.19-.69a1.31 1.31 0 0 1 .49-1.04c.153-.127.337-.225.55-.295.213-.07.447-.105.7-.105.447 0 .893.097 1.34.29v.74c-.42-.26-.847-.39-1.28-.39-.3 0-.543.072-.73.215a.678.678 0 0 0-.28.565c0 .187.063.333.19.44.127.107.283.197.47.27.187.073.39.145.61.215.22.07.423.16.61.27.187.11.343.255.47.435.127.18.19.417.19.71 0 .22-.043.42-.13.6-.087.18-.21.335-.37.465s-.35.232-.57.305c-.22.073-.46.11-.72.11-.48 0-.963-.117-1.45-.35v-.76zm4.46-6.2h.79V106h-.79v-7.19zm2.02 4.69c0-.387.058-.74.175-1.06.117-.32.282-.595.495-.825.213-.23.468-.41.765-.54.297-.13.622-.195.975-.195s.677.065.97.195c.293.13.547.31.76.54.213.23.38.505.5.825.12.32.18.673.18 1.06s-.06.74-.18 1.06a2.48 2.48 0 0 1-.5.825 2.29 2.29 0 0 1-.76.54c-.293.13-.617.195-.97.195s-.678-.065-.975-.195a2.277 2.277 0 0 1-.765-.54 2.411 2.411 0 0 1-.495-.825 3.075 3.075 0 0 1-.175-1.06zm.81 0c0 .287.04.55.12.79.08.24.19.447.33.62s.308.308.505.405c.197.097.412.145.645.145.233 0 .447-.048.64-.145a1.51 1.51 0 0 0 .5-.405c.14-.173.25-.38.33-.62.08-.24.12-.503.12-.79 0-.287-.04-.55-.12-.79-.08-.24-.19-.447-.33-.62a1.499 1.499 0 0 0-.5-.405 1.41 1.41 0 0 0-.64-.145 1.442 1.442 0 0 0-1.15.55c-.14.173-.25.38-.33.62-.08.24-.12.503-.12.79zm6.39-2.5h1.7v.63h-1.7v2.95c0 .26.08.472.24.635.16.163.37.245.63.245.127 0 .258-.023.395-.07a3.15 3.15 0 0 0 .435-.19v.69c-.36.153-.687.23-.98.23-.22 0-.423-.037-.61-.11a1.367 1.367 0 0 1-.79-.765 1.512 1.512 0 0 1-.11-.585v-3.03h-.96V101h.96v-1.41h.79V101zm2.65 4.01c.467.313.933.47 1.4.47.3 0 .55-.075.75-.225.2-.15.3-.348.3-.595a.571.571 0 0 0-.19-.455 1.689 1.689 0 0 0-.47-.28 7.967 7.967 0 0 0-.61-.22 2.98 2.98 0 0 1-.61-.27 1.55 1.55 0 0 1-.47-.425c-.127-.173-.19-.403-.19-.69a1.31 1.31 0 0 1 .49-1.04c.153-.127.337-.225.55-.295.213-.07.447-.105.7-.105.447 0 .893.097 1.34.29v.74c-.42-.26-.847-.39-1.28-.39-.3 0-.543.072-.73.215a.678.678 0 0 0-.28.565c0 .187.063.333.19.44.127.107.283.197.47.27.187.073.39.145.61.215.22.07.423.16.61.27.187.11.343.255.47.435.127.18.19.417.19.71 0 .22-.043.42-.13.6-.087.18-.21.335-.37.465s-.35.232-.57.305c-.22.073-.46.11-.72.11-.48 0-.963-.117-1.45-.35v-.76zm9.74.47a2.59 2.59 0 0 1-.765.48c-.27.107-.545.16-.825.16-.233 0-.445-.035-.635-.105a1.447 1.447 0 0 1-.49-.295 1.353 1.353 0 0 1-.435-1.03c0-.253.058-.485.175-.695a1.71 1.71 0 0 1 .485-.545 2.31 2.31 0 0 1 .745-.355c.29-.083.612-.125.965-.125.267 0 .527.01.78.03v-.43a.993.993 0 0 0-.32-.765c-.213-.197-.49-.295-.83-.295-.507 0-1.03.15-1.57.45v-.69c.56-.26 1.11-.39 1.65-.39.273 0 .523.042.75.125a1.6 1.6 0 0 1 .955.885c.09.207.135.433.135.68V106h-.77v-.52zm-2.35-.88c0 .26.09.473.27.64.18.167.413.25.7.25.233 0 .468-.06.705-.18a2.66 2.66 0 0 0 .675-.5v-1.27a6.549 6.549 0 0 0-.74-.04c-.48 0-.868.102-1.165.305-.297.203-.445.468-.445.795zm6.68 1.4h-.65l-1.99-5h.82l1.49 3.91 1.51-3.91h.81l-1.99 5zm5.74-.52a2.59 2.59 0 0 1-.765.48c-.27.107-.545.16-.825.16-.233 0-.445-.035-.635-.105a1.447 1.447 0 0 1-.49-.295 1.353 1.353 0 0 1-.435-1.03c0-.253.058-.485.175-.695a1.71 1.71 0 0 1 .485-.545 2.31 2.31 0 0 1 .745-.355c.29-.083.612-.125.965-.125.267 0 .527.01.78.03v-.43a.993.993 0 0 0-.32-.765c-.213-.197-.49-.295-.83-.295-.507 0-1.03.15-1.57.45v-.69c.56-.26 1.11-.39 1.65-.39.273 0 .523.042.75.125a1.6 1.6 0 0 1 .955.885c.09.207.135.433.135.68V106h-.77v-.52zm-2.35-.88c0 .26.09.473.27.64.18.167.413.25.7.25.233 0 .468-.06.705-.18a2.66 2.66 0 0 0 .675-.5v-1.27a6.549 6.549 0 0 0-.74-.04c-.48 0-.868.102-1.165.305-.297.203-.445.468-.445.795zm4.67-3.6h.79v5h-.79v-5zm-.1-1.45a.47.47 0 0 1 .49-.49c.147 0 .267.045.36.135a.47.47 0 0 1 .14.355.47.47 0 0 1-.14.355.497.497 0 0 1-.36.135.47.47 0 0 1-.49-.49zm2.49-.74h.79V106h-.79v-7.19zm5.17 6.67a2.59 2.59 0 0 1-.765.48c-.27.107-.545.16-.825.16-.233 0-.445-.035-.635-.105a1.447 1.447 0 0 1-.49-.295 1.353 1.353 0 0 1-.435-1.03c0-.253.058-.485.175-.695a1.71 1.71 0 0 1 .485-.545 2.31 2.31 0 0 1 .745-.355c.29-.083.612-.125.965-.125.267 0 .527.01.78.03v-.43a.993.993 0 0 0-.32-.765c-.213-.197-.49-.295-.83-.295-.507 0-1.03.15-1.57.45v-.69c.56-.26 1.11-.39 1.65-.39.273 0 .523.042.75.125a1.6 1.6 0 0 1 .955.885c.09.207.135.433.135.68V106h-.77v-.52zm-2.35-.88c0 .26.09.473.27.64.18.167.413.25.7.25.233 0 .468-.06.705-.18a2.66 2.66 0 0 0 .675-.5v-1.27a6.549 6.549 0 0 0-.74-.04c-.48 0-.868.102-1.165.305-.297.203-.445.468-.445.795zm8.3-1.1c0-.287-.038-.55-.115-.79a1.886 1.886 0 0 0-.32-.615 1.49 1.49 0 0 0-.49-.4 1.358 1.358 0 0 0-.625-.145c-.46 0-.89.2-1.29.6v2.7c.4.4.83.6 1.29.6.227 0 .435-.048.625-.145.19-.097.353-.23.49-.4s.243-.375.32-.615c.077-.24.115-.503.115-.79zm-3.63-4.69h.79v2.63c.433-.373.903-.56 1.41-.56a2.101 2.101 0 0 1 1.62.735c.2.23.355.505.465.825.11.32.165.673.165 1.06s-.055.74-.165 1.06a2.46 2.46 0 0 1-.465.825 2.101 2.101 0 0 1-1.62.735c-.507 0-.977-.19-1.41-.57v.45h-.79v-7.19zm5.67 0h.79V106h-.79v-7.19zm2.02 4.65c0-.38.058-.727.175-1.04a2.57 2.57 0 0 1 .48-.815c.203-.23.447-.408.73-.535.283-.127.595-.19.935-.19.307 0 .585.06.835.18s.465.288.645.505c.18.217.318.475.415.775.097.3.145.63.145.99v.175c0 .057-.003.115-.01.175h-3.55c.007.267.057.512.15.735.093.223.217.415.37.575.153.16.335.283.545.37.21.087.438.13.685.13a2.3 2.3 0 0 0 .725-.125 3.53 3.53 0 0 0 .745-.355v.72a3.48 3.48 0 0 1-1.57.39c-.36 0-.69-.065-.99-.195a2.25 2.25 0 0 1-.775-.55 2.534 2.534 0 0 1-.505-.84 3.07 3.07 0 0 1-.18-1.075zm3.58-.34c-.007-.48-.128-.868-.365-1.165a1.128 1.128 0 0 0-.925-.445c-.42 0-.765.148-1.035.445-.27.297-.422.685-.455 1.165h2.78z"/><path fill="#414146" fill-rule="nonzero" d="M285.498 81.744h4.716v.792h-3.744v3.048h3.276v.804h-3.276V90h-.972v-8.256zm6.12 2.256h.948v.72c.232-.28.492-.494.78-.642.288-.148.58-.222.876-.222.2 0 .396.028.588.084v.864a2.232 2.232 0 0 0-.636-.096c-.28 0-.56.08-.84.24-.28.16-.536.392-.768.696V90h-.948v-6zm4.512 0h.948v6h-.948v-6zm-.12-1.74a.565.565 0 0 1 .588-.588c.176 0 .32.054.432.162.112.108.168.25.168.426a.565.565 0 0 1-.168.426.597.597 0 0 1-.432.162.565.565 0 0 1-.588-.588zm3.144 6.744h.924l-1.044 2.496h-.804l.924-2.496zm5.616.324a36.828 36.828 0 0 0 1.824-1.764c.496-.52.896-.988 1.2-1.404.304-.416.524-.79.66-1.122.136-.332.204-.642.204-.93 0-.504-.15-.908-.45-1.212-.3-.304-.686-.456-1.158-.456-.336 0-.68.066-1.032.198a3.923 3.923 0 0 0-1.056.618v-.96c.744-.464 1.504-.696 2.28-.696.352 0 .676.058.972.174.296.116.55.278.762.486.212.208.378.456.498.744s.18.604.18.948c0 .328-.064.668-.192 1.02a5.433 5.433 0 0 1-.612 1.152c-.28.416-.648.874-1.104 1.374-.456.5-1.012 1.058-1.668 1.674h3.696V90h-5.004v-.672zm6.756 0a36.828 36.828 0 0 0 1.824-1.764c.496-.52.896-.988 1.2-1.404.304-.416.524-.79.66-1.122.136-.332.204-.642.204-.93 0-.504-.15-.908-.45-1.212-.3-.304-.686-.456-1.158-.456-.336 0-.68.066-1.032.198a3.923 3.923 0 0 0-1.056.618v-.96c.744-.464 1.504-.696 2.28-.696.352 0 .676.058.972.174.296.116.55.278.762.486.212.208.378.456.498.744s.18.604.18.948c0 .328-.064.668-.192 1.02a5.433 5.433 0 0 1-.612 1.152c-.28.416-.648.874-1.104 1.374-.456.5-1.012 1.058-1.668 1.674h3.696V90h-5.004v-.672zm13.416-1.488c0 .336-.058.646-.174.93a2.11 2.11 0 0 1-.492.732 2.226 2.226 0 0 1-.756.474c-.292.112-.61.168-.954.168-.488 0-1.016-.124-1.584-.372v-.9c.512.296.988.444 1.428.444.456 0 .83-.144 1.122-.432.292-.288.438-.66.438-1.116v-6.024h.972v6.096zM331.95 90h-.96v-.672c-.584.544-1.216.816-1.896.816-.304 0-.584-.052-.84-.156a1.97 1.97 0 0 1-.66-.432 1.956 1.956 0 0 1-.432-.666 2.257 2.257 0 0 1-.156-.846V84h.948v3.912c0 .416.128.756.384 1.02s.588.396.996.396c.288 0 .572-.072.852-.216.28-.144.548-.356.804-.636V84h.96v6zm1.908-6h.948v.66c.584-.536 1.22-.804 1.908-.804.304 0 .584.052.84.156.256.104.476.248.66.432.184.184.328.404.432.66.104.256.156.54.156.852V90h-.96v-3.912c0-.416-.126-.756-.378-1.02s-.582-.396-.99-.396a1.88 1.88 0 0 0-.858.216 2.863 2.863 0 0 0-.81.636V90h-.948v-6z"/><path fill="#01A400" fill-rule="nonzero" d="M275.06 105.44a30.69 30.69 0 0 0 1.52-1.47c.413-.433.747-.823 1-1.17s.437-.658.55-.935a2.06 2.06 0 0 0 .17-.775c0-.42-.125-.757-.375-1.01s-.572-.38-.965-.38c-.28 0-.567.055-.86.165-.293.11-.587.282-.88.515v-.8c.62-.387 1.253-.58 1.9-.58.293 0 .563.048.81.145.247.097.458.232.635.405.177.173.315.38.415.62.1.24.15.503.15.79 0 .273-.053.557-.16.85a4.528 4.528 0 0 1-.51.96c-.233.347-.54.728-.92 1.145-.38.417-.843.882-1.39 1.395h3.08v.69h-4.17v-.56zm8.44-1.35h-3.11v-.53l3.24-4.44h.66v4.34h1.09v.63h-1.09V106h-.79v-1.91zm0-.63v-3.14l-2.27 3.14h2.27zm5.27 1.55c.467.313.933.47 1.4.47.3 0 .55-.075.75-.225.2-.15.3-.348.3-.595a.571.571 0 0 0-.19-.455 1.689 1.689 0 0 0-.47-.28 7.967 7.967 0 0 0-.61-.22 2.98 2.98 0 0 1-.61-.27 1.55 1.55 0 0 1-.47-.425c-.127-.173-.19-.403-.19-.69a1.31 1.31 0 0 1 .49-1.04c.153-.127.337-.225.55-.295.213-.07.447-.105.7-.105.447 0 .893.097 1.34.29v.74c-.42-.26-.847-.39-1.28-.39-.3 0-.543.072-.73.215a.678.678 0 0 0-.28.565c0 .187.063.333.19.44.127.107.283.197.47.27.187.073.39.145.61.215.22.07.423.16.61.27.187.11.343.255.47.435.127.18.19.417.19.71 0 .22-.043.42-.13.6-.087.18-.21.335-.37.465s-.35.232-.57.305c-.22.073-.46.11-.72.11-.48 0-.963-.117-1.45-.35v-.76zm4.46-6.2h.79V106h-.79v-7.19zm2.02 4.69c0-.387.058-.74.175-1.06.117-.32.282-.595.495-.825.213-.23.468-.41.765-.54.297-.13.622-.195.975-.195s.677.065.97.195c.293.13.547.31.76.54.213.23.38.505.5.825.12.32.18.673.18 1.06s-.06.74-.18 1.06a2.48 2.48 0 0 1-.5.825 2.29 2.29 0 0 1-.76.54c-.293.13-.617.195-.97.195s-.678-.065-.975-.195a2.277 2.277 0 0 1-.765-.54 2.411 2.411 0 0 1-.495-.825 3.075 3.075 0 0 1-.175-1.06zm.81 0c0 .287.04.55.12.79.08.24.19.447.33.62s.308.308.505.405c.197.097.412.145.645.145.233 0 .447-.048.64-.145a1.51 1.51 0 0 0 .5-.405c.14-.173.25-.38.33-.62.08-.24.12-.503.12-.79 0-.287-.04-.55-.12-.79-.08-.24-.19-.447-.33-.62a1.499 1.499 0 0 0-.5-.405 1.41 1.41 0 0 0-.64-.145 1.442 1.442 0 0 0-1.15.55c-.14.173-.25.38-.33.62-.08.24-.12.503-.12.79zm6.39-2.5h1.7v.63h-1.7v2.95c0 .26.08.472.24.635.16.163.37.245.63.245.127 0 .258-.023.395-.07a3.15 3.15 0 0 0 .435-.19v.69c-.36.153-.687.23-.98.23-.22 0-.423-.037-.61-.11a1.367 1.367 0 0 1-.79-.765 1.512 1.512 0 0 1-.11-.585v-3.03h-.96V101h.96v-1.41h.79V101zm2.65 4.01c.467.313.933.47 1.4.47.3 0 .55-.075.75-.225.2-.15.3-.348.3-.595a.571.571 0 0 0-.19-.455 1.689 1.689 0 0 0-.47-.28 7.967 7.967 0 0 0-.61-.22 2.98 2.98 0 0 1-.61-.27 1.55 1.55 0 0 1-.47-.425c-.127-.173-.19-.403-.19-.69a1.31 1.31 0 0 1 .49-1.04c.153-.127.337-.225.55-.295.213-.07.447-.105.7-.105.447 0 .893.097 1.34.29v.74c-.42-.26-.847-.39-1.28-.39-.3 0-.543.072-.73.215a.678.678 0 0 0-.28.565c0 .187.063.333.19.44.127.107.283.197.47.27.187.073.39.145.61.215.22.07.423.16.61.27.187.11.343.255.47.435.127.18.19.417.19.71 0 .22-.043.42-.13.6-.087.18-.21.335-.37.465s-.35.232-.57.305c-.22.073-.46.11-.72.11-.48 0-.963-.117-1.45-.35v-.76zm9.74.47a2.59 2.59 0 0 1-.765.48c-.27.107-.545.16-.825.16-.233 0-.445-.035-.635-.105a1.447 1.447 0 0 1-.49-.295 1.353 1.353 0 0 1-.435-1.03c0-.253.058-.485.175-.695a1.71 1.71 0 0 1 .485-.545 2.31 2.31 0 0 1 .745-.355c.29-.083.612-.125.965-.125.267 0 .527.01.78.03v-.43a.993.993 0 0 0-.32-.765c-.213-.197-.49-.295-.83-.295-.507 0-1.03.15-1.57.45v-.69c.56-.26 1.11-.39 1.65-.39.273 0 .523.042.75.125a1.6 1.6 0 0 1 .955.885c.09.207.135.433.135.68V106h-.77v-.52zm-2.35-.88c0 .26.09.473.27.64.18.167.413.25.7.25.233 0 .468-.06.705-.18a2.66 2.66 0 0 0 .675-.5v-1.27a6.549 6.549 0 0 0-.74-.04c-.48 0-.868.102-1.165.305-.297.203-.445.468-.445.795zm6.68 1.4h-.65l-1.99-5h.82l1.49 3.91 1.51-3.91h.81l-1.99 5zm5.74-.52a2.59 2.59 0 0 1-.765.48c-.27.107-.545.16-.825.16-.233 0-.445-.035-.635-.105a1.447 1.447 0 0 1-.49-.295 1.353 1.353 0 0 1-.435-1.03c0-.253.058-.485.175-.695a1.71 1.71 0 0 1 .485-.545 2.31 2.31 0 0 1 .745-.355c.29-.083.612-.125.965-.125.267 0 .527.01.78.03v-.43a.993.993 0 0 0-.32-.765c-.213-.197-.49-.295-.83-.295-.507 0-1.03.15-1.57.45v-.69c.56-.26 1.11-.39 1.65-.39.273 0 .523.042.75.125a1.6 1.6 0 0 1 .955.885c.09.207.135.433.135.68V106h-.77v-.52zm-2.35-.88c0 .26.09.473.27.64.18.167.413.25.7.25.233 0 .468-.06.705-.18a2.66 2.66 0 0 0 .675-.5v-1.27a6.549 6.549 0 0 0-.74-.04c-.48 0-.868.102-1.165.305-.297.203-.445.468-.445.795zm4.67-3.6h.79v5h-.79v-5zm-.1-1.45a.47.47 0 0 1 .49-.49c.147 0 .267.045.36.135a.47.47 0 0 1 .14.355.47.47 0 0 1-.14.355.497.497 0 0 1-.36.135.47.47 0 0 1-.49-.49zm2.49-.74h.79V106h-.79v-7.19zm5.17 6.67a2.59 2.59 0 0 1-.765.48c-.27.107-.545.16-.825.16-.233 0-.445-.035-.635-.105a1.447 1.447 0 0 1-.49-.295 1.353 1.353 0 0 1-.435-1.03c0-.253.058-.485.175-.695a1.71 1.71 0 0 1 .485-.545 2.31 2.31 0 0 1 .745-.355c.29-.083.612-.125.965-.125.267 0 .527.01.78.03v-.43a.993.993 0 0 0-.32-.765c-.213-.197-.49-.295-.83-.295-.507 0-1.03.15-1.57.45v-.69c.56-.26 1.11-.39 1.65-.39.273 0 .523.042.75.125a1.6 1.6 0 0 1 .955.885c.09.207.135.433.135.68V106h-.77v-.52zm-2.35-.88c0 .26.09.473.27.64.18.167.413.25.7.25.233 0 .468-.06.705-.18a2.66 2.66 0 0 0 .675-.5v-1.27a6.549 6.549 0 0 0-.74-.04c-.48 0-.868.102-1.165.305-.297.203-.445.468-.445.795zm8.3-1.1c0-.287-.038-.55-.115-.79a1.886 1.886 0 0 0-.32-.615 1.49 1.49 0 0 0-.49-.4 1.358 1.358 0 0 0-.625-.145c-.46 0-.89.2-1.29.6v2.7c.4.4.83.6 1.29.6.227 0 .435-.048.625-.145.19-.097.353-.23.49-.4s.243-.375.32-.615c.077-.24.115-.503.115-.79zm-3.63-4.69h.79v2.63c.433-.373.903-.56 1.41-.56a2.101 2.101 0 0 1 1.62.735c.2.23.355.505.465.825.11.32.165.673.165 1.06s-.055.74-.165 1.06a2.46 2.46 0 0 1-.465.825 2.101 2.101 0 0 1-1.62.735c-.507 0-.977-.19-1.41-.57v.45h-.79v-7.19zm5.67 0h.79V106h-.79v-7.19zm2.02 4.65c0-.38.058-.727.175-1.04a2.57 2.57 0 0 1 .48-.815c.203-.23.447-.408.73-.535.283-.127.595-.19.935-.19.307 0 .585.06.835.18s.465.288.645.505c.18.217.318.475.415.775.097.3.145.63.145.99v.175c0 .057-.003.115-.01.175h-3.55c.007.267.057.512.15.735.093.223.217.415.37.575.153.16.335.283.545.37.21.087.438.13.685.13a2.3 2.3 0 0 0 .725-.125 3.53 3.53 0 0 0 .745-.355v.72a3.48 3.48 0 0 1-1.57.39c-.36 0-.69-.065-.99-.195a2.25 2.25 0 0 1-.775-.55 2.534 2.534 0 0 1-.505-.84 3.07 3.07 0 0 1-.18-1.075zm3.58-.34c-.007-.48-.128-.868-.365-1.165a1.128 1.128 0 0 0-.925-.445c-.42 0-.765.148-1.035.445-.27.297-.422.685-.455 1.165h2.78z"/></g></svg>