<svg xmlns="http://www.w3.org/2000/svg" width="82" height="82"><g fill="none" fill-rule="evenodd"><path fill="#FFF" fill-rule="nonzero" d="M18.484 45.355A713.275 713.275 0 0 0 22.68 33.15c.705-2.11 1.299-4.813 2.654-6.607a.57.57 0 0 1 .014.007c.467-.56 1.434-.658 2.155-.766-.117-.36-.16-.74-.07-1.104.125-.515.566-.973 1.097-1 .582-.028 1.088.459 1.276 1.008.073.215.109.438.122.664 1.213-.225 2.425-.458 3.637-.694-.35-.308-.37-.925-.088-1.318.317-.44.885-.633 1.428-.676.319-.024.655-.002.93.162.42.252.588.787.533 1.279 1.108-.221 2.214-.444 3.321-.667-.31-.573-.218-1.359.26-1.812.551-.522 1.525-.51 2.057.03.316.32.44.797.373 1.24a863.84 863.84 0 0 1 3.216-.64c-.34-.577-.255-1.392.235-1.857.55-.522 1.524-.51 2.056.03.334.338.454.849.362 1.31.218-.04.437-.083.656-.124a99.18 99.18 0 0 1 2.443-.428c-.114-.753-.173-1.606.354-2.146.616-.632 1.816-.386 2.26.375.235.403.272.884.159 1.336.927-.141 1.855-.282 2.78-.431-.08-.674-.066-1.385.394-1.856.617-.632 1.816-.386 2.26.375.175.3.24.641.216.982a37.87 37.87 0 0 0 3.212-.734c-.492-.377-.596-1.188-.187-1.662.432-.503 1.325-.497 1.752.01.258.31.304.754.171 1.13.93-.294 1.854-.603 2.797-.881-.218-.41-.2-.955.107-1.311.433-.503 1.325-.497 1.752.01.178.212.255.489.243.763.806-.156 1.67-.203 2.266.323.442.39.607.997.75 1.568 1.241 4.938 2.603 9.844 3.7 14.818.406 1.836 1.107 3.49 1.71 5.235.729 2.112 1.071 4.44 1.71 6.595l.999 3.364c.243.82.296 1.316-.192 1.52.515 3.033-.167 6.596-2.052 8.985-1.419 1.796-3.472 3.052-5.683 3.659-1.592.437-3.262.547-4.904.397-1.177-.108-2.396.044-3.533-.288a10.157 10.157 0 0 1-.936-.325c-.244.033-.515.022-.625.03-.439.028-.887.14-1.322.213-1.04.175-2.077.351-3.117.52a148.76 148.76 0 0 1-6.4.928c-4.244.505-8.535.725-12.8.34-2.545-.229-5.067-.861-7.602-1.027-2.296-.15-4.44-1.14-6.698-1.634-3.934-.862-8.015-.632-12.03-.943-3.253-.252-6.63-.91-9.406-2.707C1.2 57.263.105 53.92 1.889 51.633c1.414-1.814 3.663-2.766 5.73-3.628 3.365-1.406 7.222-2.316 10.865-2.65z" style="mix-blend-mode:multiply"/><path fill="#FC0" fill-rule="nonzero" d="M62.425 19.236a37.87 37.87 0 0 1-1.911.44c-3.836.772-7.76 1.21-11.61 1.939-4.64.879-9.261 1.845-13.894 2.76-2.42.477-4.844.946-7.275 1.372-.859.15-2.279.198-2.599 1.187-.167.515.126 1.134.26 1.617.249.893.467 1.796.695 2.703.58 2.309 1.15 4.621 1.663 6.946.484 2.19.62 4.699 1.426 6.78 1.715 4.432 2.434 9.126 3.631 13.701.516 1.968 2.066 1.868 3.7 1.472 1.874-.455 3.739-.951 5.585-1.509 1.718-.52 3.447-.69 5.223-1.004 2.669-.473 5.348-.886 8.028-1.293.589-.09 2.852.015 3.152-.55a.538.538 0 0 0 .04-.257c-.052-3.95.459-7.539 3.23-10.61.722-.8 1.494-1.592 2.466-2.06.764-.368 1.614-.518 2.457-.613 2.693-.304 5.775-.366 8.232.944 1.08.576 2.103 1.56 2.75 2.599.335.537 1.701 4.878 2.097 4.88 1.29.01 1.315-.504.98-1.63l-.997-3.364c-.64-2.155-.982-4.483-1.711-6.595-.603-1.745-1.304-3.4-1.71-5.235-1.097-4.974-2.459-9.88-3.7-14.818-.143-.571-.308-1.178-.75-1.568-.703-.62-1.78-.444-2.693-.231-2.338.545-4.477 1.413-6.765 1.997" style="mix-blend-mode:multiply"/><path stroke="#B75656" stroke-linecap="round" stroke-linejoin="round" stroke-width="2.051" d="M27.68 26.216c-.236-.475-.374-1.022-.247-1.536.125-.515.566-.973 1.097-1 .582-.028 1.088.459 1.276 1.008.188.55.13 1.149.07 1.726m3.832-1.658c-.483-.251-.547-.975-.23-1.416.316-.44.884-.633 1.427-.676.319-.024.655-.002.93.162.464.278.62.901.51 1.43-.112.528-.433.985-.747 1.424m4.259-2c-.498-.57-.458-1.533.093-2.054.55-.522 1.524-.51 2.056.03s.52 1.518-.03 2.04m3.762-1.242c-.499-.572-.458-1.533.092-2.055.55-.522 1.524-.51 2.056.03s.521 1.518-.03 2.04m3.504-1.196c-.122-.772-.207-1.672.341-2.232.616-.632 1.816-.386 2.26.375.445.762.181 1.804-.47 2.4m3.462-1.118c-.122-.773-.206-1.673.341-2.233.617-.632 1.816-.386 2.26.375.445.762.181 1.804-.47 2.4m8.816-3.143c-.57-.342-.71-1.221-.278-1.723.433-.503 1.325-.497 1.752.01.426.508.274 1.385-.299 1.72m-6.003 1.046c-.569-.343-.71-1.222-.277-1.724.432-.503 1.325-.497 1.752.01.426.508.273 1.385-.3 1.72"/><path fill="#FF9500" fill-rule="nonzero" d="M24.312 52.496l-7.78 1.733c-.33.073-.694.143-.992-.017-.627-.337 1.137-3.812 1.39-4.515a703.664 703.664 0 0 0 5.75-16.547c.705-2.11 1.299-4.813 2.654-6.607.613.312.647 1.732.787 2.353.28 1.248.596 2.488.923 3.725.621 2.345 1.29 4.677 1.864 7.034a729.21 729.21 0 0 1 1.373 5.743c.233.991 1.71 4.699.828 5.457-.195.168-.457.23-.709.286l-6.088 1.355" style="mix-blend-mode:multiply"/><path fill="#70B830" fill-rule="nonzero" d="M77.57 44.39c-2.452-2.699-5.505-3.076-8.916-3.04-1.579.018-3.24.22-4.72.795-1.106.429-2.175 1.48-2.998 2.324-2.401 2.465-3.377 5.96-3.244 9.327.068 1.701.31 3.428 1.049 4.963 1.09 2.26 3.262 3.866 5.647 4.564 1.137.332 2.356.18 3.533.288 1.642.15 3.312.04 4.904-.397 2.21-.607 4.264-1.863 5.683-3.66 2.146-2.718 2.733-6.959 1.77-10.205-.514-1.736-1.479-3.605-2.708-4.958" style="mix-blend-mode:multiply"/><path fill="#FFF" fill-rule="nonzero" d="M61.86 53.45c1.172 1.554 2.296 3.677 3.776 4.93.905.765 1.865.46 2.663-.322 2.992-2.936 5.638-6.25 8.633-9.202.936-.922-.508-2.36-1.442-1.438a158.841 158.841 0 0 0-6.175 6.422c-.499.55-.993 1.104-1.484 1.661l-.489.559c-.241.654-.502.742-.78.263-.41-.136-.979-1.298-1.225-1.625l-1.714-2.275c-.78-1.034-2.552-.021-1.762 1.027M33.246 32.4c-.375.386-.293 1.11.16 1.402.451.293 1.147.073 1.348-.426.085-.21.088-.442.09-.669 0-.173-.003-.357-.096-.503-.212-.33-.706-.264-1.084-.156m8.196-1.223c-.375.385-.293 1.108.16 1.4.452.294 1.148.074 1.349-.425.084-.21.087-.443.089-.67 0-.172-.003-.357-.096-.503-.211-.33-.706-.263-1.083-.155m7.765-1.366c-.376.386-.294 1.109.159 1.401.451.293 1.148.073 1.348-.425.085-.21.088-.443.09-.67 0-.173-.003-.357-.096-.503-.211-.33-.706-.263-1.084-.156m8.095-1.336c-.375.386-.293 1.11.159 1.402.452.292 1.148.073 1.349-.426.084-.21.088-.443.089-.67 0-.173-.003-.356-.096-.503-.211-.33-.705-.263-1.083-.156m7.95-1.7c-.375.385-.294 1.109.159 1.401.452.293 1.148.073 1.349-.426.084-.21.087-.443.089-.67 0-.172-.003-.356-.096-.503-.211-.33-.706-.262-1.083-.156M35.207 40.662c-.375.385-.293 1.109.159 1.401.452.293 1.149.073 1.349-.426.084-.21.088-.442.089-.669 0-.173-.003-.357-.096-.503-.211-.33-.705-.263-1.083-.156"/><path fill="#70B830" fill-rule="nonzero" d="M43.822 39.086c-.376.385-.294 1.108.158 1.4.452.294 1.149.074 1.35-.425.084-.21.087-.442.088-.669.001-.173-.002-.357-.095-.504-.212-.33-.706-.263-1.083-.155"/><path fill="#FFF" fill-rule="nonzero" d="M52.004 37.367c-.375.386-.293 1.11.16 1.402.451.293 1.147.072 1.348-.426.084-.21.088-.443.089-.67 0-.173-.002-.357-.096-.503-.21-.33-.705-.263-1.083-.156m8.095-1.335c-.375.385-.294 1.108.159 1.4.452.294 1.148.074 1.349-.425.084-.21.087-.443.089-.67 0-.172-.003-.357-.096-.503-.211-.33-.706-.262-1.083-.155m7.95-1.701c-.375.385-.294 1.109.158 1.4.452.294 1.149.074 1.35-.425.084-.21.087-.442.088-.669.001-.173-.002-.357-.095-.503-.212-.33-.706-.263-1.083-.156M37.168 48.923c-.375.386-.294 1.109.159 1.401.451.293 1.148.073 1.349-.426.084-.21.087-.442.089-.669 0-.173-.003-.357-.096-.503-.211-.33-.706-.263-1.083-.156m8.196-1.223c-.375.385-.293 1.109.16 1.401.451.293 1.147.073 1.348-.426.085-.21.088-.442.09-.669 0-.173-.003-.357-.096-.503-.212-.33-.706-.263-1.084-.156m7.765-1.365c-.375.385-.294 1.109.159 1.4.452.294 1.148.074 1.348-.425.085-.21.089-.443.09-.67 0-.172-.003-.356-.096-.503-.211-.33-.705-.263-1.083-.156"/><path fill="#D4E7F8" fill-rule="nonzero" d="M16.466 53.6c.325.126.925.025 1.44-.07a96.398 96.398 0 0 0 11.984-3.024c.937-.3 1.296-.302 1.692.615.348.805.539 1.674.693 2.531.324 1.791.434 3.644 1.113 5.352.098.248.215.501.421.672.56.467 1.192.125 1.757-.068.782-.267 1.6-.451 2.402-.66a233.57 233.57 0 0 1 5.198-1.304c3.418-.806 6.87-1.497 10.363-1.904.968-.113 1.926-.3 2.894-.416.4-.048 1.92-.49 2.223-.234.273.23.256 1.983.4 2.421.376 1.138 1.15 2.58 2 3.434.417.42.9.776 1.452.999.415.166 1.143.129 1.376.605.262.537-.8.462-1.047.478-.439.03-.887.141-1.322.214-1.04.175-2.077.351-3.117.52a148.76 148.76 0 0 1-6.4.928c-4.244.505-8.535.725-12.8.34-2.545-.229-5.067-.861-7.602-1.027-2.296-.15-4.44-1.14-6.698-1.634-3.934-.862-8.015-.632-12.03-.943-3.253-.252-6.63-.91-9.406-2.707C1.2 57.263.105 53.92 1.889 51.633c1.414-1.814 3.663-2.766 5.73-3.628C11 46.593 14.877 45.68 18.535 45.35a.44.44 0 0 1 .22.018c.225.102.132.435.016.653-.966 1.82-1.517 3.916-2.209 5.859-.13.366-.67 1.497-.097 1.72" style="mix-blend-mode:multiply"/></g></svg>