<svg xmlns="http://www.w3.org/2000/svg" width="82" height="82"><g fill="none"><path fill="#E3EEFF" d="M76.2 51.604c-3.809-.362-17.347 7.145-17.6 6.775-.663-.973-6.269-.066-7.445 0-4.88.276-9.754-.444-14.587-1.161-1.775-.263-3.792-.685-4.677-2.242-.57-1.001-.51-2.221-.511-3.372-.004-3-.169-5.923-.03-8.93.13-2.805-.65-5.544-.61-8.286.032-2.168.729-4.265.549-6.508-.28-3.464-3.255-2.486-5.944-2.39-3.167.114-6.34.448-9.406 1.274-5.444 1.467-10.66 4.708-13.235 9.717-3.54 6.888-1.227 15.681 3.838 21.543s12.365 9.297 19.667 11.9c7.333 2.614 14.985 4.572 22.77 4.732 3.573.074 7.143-.231 10.704-.536 5.153-.442 10.393-.904 15.198-2.815 1.342-.535 3.563-1.389 5.052-6.133 2.134-6.793-1.418-13.348-3.733-13.568z"/><path fill="#7B57C2" d="M62.955 63.07a2.328 2.328 0 0 1-.45.402c-1.62 1.11-4.882.727-6.718.844-5.788.369-11.62.762-17.404.125-1.97-.217-5.128-.16-6.745-1.435-1.452-1.145-1.587-3.255-1.6-5.102-.1-14.381-.266-28.79-.488-43.187-.033-2.217-.756-4.97.433-6.983.711-1.205 2.032-1.95 3.393-2.28 1.361-.331 2.78-.3 4.181-.28 3.63.049 7.264 0 10.892-.15 3.29-.135 6.57.333 9.883.363 1.24.012 2.723.162 3.302 1.257.233.44.264.955.29 1.452.322 5.963.636 11.884.636 17.847l.32 20.62c.055 3.632.066 7.412.477 11.019.181 1.594.775 4.123-.402 5.489" style="mix-blend-mode:multiply"/><path fill="#EBF8F7" d="M60.72 56.852a1.92 1.92 0 0 1-.388.304c-1.4.842-4.218.551-5.803.64-5 .279-10.036.577-15.033.095-1.702-.164-4.43-.122-5.826-1.088-1.255-.867-1.37-2.466-1.382-3.865-.087-10.895-.23-21.81-.421-32.718-.03-1.664-.79-5.013.666-6.364.391-.364.95-.505 1.487-.596 1.546-.264 3.197-.288 4.762-.27 3.137.037 6.274 0 9.408-.113 2.841-.103 5.676.252 8.537.275 1.071.009 2.351.122 2.852.952.2.333.228.723.251 1.1.278 4.517.548 9.003.548 13.52l.276 15.622c.05 2.752.059 5.616.413 8.348.157 1.208.67 3.123-.347 4.158"/><path fill="#7B57C2" d="M41.517 9.218c2.852.1 5.7.063 8.548-.113.968-.06.974-1.57 0-1.51a88.268 88.268 0 0 1-8.548.112c-.974-.034-.973 1.477 0 1.511" style="mix-blend-mode:multiply"/><path fill="#62AC20" d="M67.202 65.182a19.065 19.065 0 0 0 3.14-.635c1.3-.392 2.585-.948 3.576-1.877.483-.453.884-.984 1.283-1.512 3.173-4.201 4.175-8.677 3.157-13.888-.679-3.473-2.95-6.661-6.036-8.41-2.673-1.517-6.734-2.613-9.736-1.747-2.3.664-5.38 1.496-7.25 2.994-2.705 2.165-4.382 5.448-4.999 8.854-.586 3.242-.246 6.69 1.24 9.63 1.485 2.941 4.165 5.321 7.351 6.173 2.378.636 5.491.758 8.274.418"/><path fill="#FFF" d="M56.16 54.575a95.62 95.62 0 0 1 6.736 4.406c.478.342 1.264.089 1.53-.395a51.603 51.603 0 0 1 8.989-11.912c1.017-1.005-.564-2.564-1.582-1.558a53.704 53.704 0 0 0-9.338 12.358l1.53-.396a95.647 95.647 0 0 0-6.737-4.405c-1.235-.736-2.36 1.17-1.128 1.902"/><path fill="#7BE184" d="M45.882 33.324c-.4-.62-.646-1.353-.658-2.026-.012-.632-.02-1.283.215-1.87.295-.736.917-1.24 1.417-1.83.622-.731.55-1.076.328-1.99-.208-.858-.43-1.747-.983-2.437-.148-.185-.323-.357-.54-.451-.327-.142-.703-.094-1.054-.031-.893.158-1.914.51-2.184 1.374-.072.231-.08.477-.084.719a22.991 22.991 0 0 0 1.325 8.052c.352.987.77 1.95 1.22 2.896.428.9.885 1.787 1.368 2.659.312.562.648 1.134 1.157 1.529a2.574 2.574 0 0 0 2.537.325 2.567 2.567 0 0 0 1.513-2.059c.092-.914-.342-1.835-1.024-2.451-.53-.478-1.193-.782-1.883-.948-.548-.131-1.18-.08-1.664-.407a3.699 3.699 0 0 1-1.006-1.054"/></g></svg>