<svg xmlns="http://www.w3.org/2000/svg" xmlns:xlink="http://www.w3.org/1999/xlink" width="82" height="82"><defs><path id="a" d="M0 .207h57.537V54.11H0z"/><path id="c" d="M.24.178h26.768v27.619H.24z"/></defs><g fill="none" fill-rule="evenodd"><g transform="translate(1 16.12)"><mask id="b" fill="#fff"><use xlink:href="#a"/></mask><path fill="#C4C0F6" fill-rule="nonzero" d="M7.84 50.992c.247.662.515 1.345 1.032 1.833.644.608 1.568.819 2.45.957 3.265.509 6.6.35 9.89.035a106.421 106.421 0 0 0 29.271-7.076c1.885-.751 3.818-1.608 5.12-3.14 1.927-2.266 2.059-5.489 1.871-8.432-.52-8.152-2.765-16.091-4.999-23.96l-2.654-9.355c-.15-.528-.332-1.1-.799-1.403-.4-.26-.916-.256-1.396-.235-14.56.638-28.375 8.294-42.913 7.28-2.921-.204-3.836.786-4.499 3.572-.634 2.667.33 5.462.455 8.16.157 3.396.67 6.766 1.264 10.114a124.036 124.036 0 0 0 5.907 21.65" mask="url(#b)"/></g><path fill="#406191" fill-rule="nonzero" d="M25.717 26.112c.534-1.104 1.369-2.037 2.193-2.954l2.753-3.063c.111-.123.259-.259.422-.219a.465.465 0 0 1 .163.093 18.4 18.4 0 0 1 1.52 1.31c.101.097.207.205.228.343.033.207-.134.389-.289.534a48.476 48.476 0 0 1-7.428 5.722"/><path fill="#C94177" fill-rule="nonzero" d="M30.698 17.873c-.888 1-.765 2.63.088 3.66.854 1.028 2.28 1.49 3.633 1.43.271-.012.552-.045.786-.182.53-.31.635-1.02.572-1.623-.063-.602-.232-1.226-.032-1.799.351-1.006 1.601-1.336 2.464-1.981.797-.597 1.31-1.63 1.06-2.581-.144-.553-.52-1.02-.93-1.425-.903-.89-2.18-1.592-3.428-1.308a2.502 2.502 0 0 0-1.737 1.457c-.295.72-.208 1.58.225 2.23.056.083.12.169.127.268a.415.415 0 0 1-.074.245c-.33.538-1.062.64-1.683.801-.62.16-1.32.623-1.198 1.24"/><path fill="#FFF" fill-rule="nonzero" stroke="#FFF" stroke-width="1.127" d="M36.28 30.557a61.79 61.79 0 0 1 4.84 1.805c.893.378 1.546.739 2.22-.113.96-1.215 1.667-2.761 2.466-4.085l2.74-4.539c.454-.75-.74-1.432-1.192-.682l-2.604 4.311c-.829 1.373-1.592 3.262-2.725 4.407l.672-.174c-.973-.168-2.013-.773-2.93-1.127a65.406 65.406 0 0 0-3.12-1.108c-.845-.278-1.207 1.028-.368 1.305m5.157 26.266c1.676.916 3.154 2.168 4.821 3.069 1.088.587 2.194.395 2.972-.55 1.177-1.428 1.852-3.487 2.674-5.129l2.81-5.61c.39-.78-.802-1.466-1.193-.684l-4.215 8.417c-.27.542-.493 1.243-.868 1.721-.349.444-1.105.746-1.663.554-.25-.086-.508-.347-.72-.498a38.822 38.822 0 0 0-3.92-2.458c-.778-.425-1.475.743-.698 1.168M37.69 43.108c1.677.917 3.155 2.169 4.822 3.069 1.087.587 2.194.395 2.972-.55 1.176-1.427 1.851-3.486 2.674-5.128l2.809-5.611c.39-.779-.801-1.465-1.193-.683l-4.214 8.417c-.271.541-.493 1.242-.868 1.72-.35.445-1.106.747-1.664.555-.25-.086-.508-.347-.72-.499a38.695 38.695 0 0 0-3.92-2.458c-.777-.425-1.474.743-.697 1.168"/><g transform="translate(52.938 23.695)"><mask id="d" fill="#fff"><use xlink:href="#c"/></mask><path fill="#6099E4" fill-rule="nonzero" d="M6.295 25.697c-.523.297-1.155.488-1.697.699l-2.574 1c-.288.111-1.59.607-1.708.304-.206-.529.06-1.373.152-1.917.119-.708.366-1.394.511-2.097.152-.732.18-1.55.439-2.254.168-.455.497-.833.828-1.192 1.188-1.286 2.495-2.46 3.8-3.633 1.84-1.657 13.306-13.205 15.148-14.86C22.262.786 22.893-.186 24.51.312c1.02.314 2.055.935 2.356 1.94.722 2.415-1.486 3.915-3.005 5.445-.359.361-.654.808-1.03 1.145-.324.29-.695.509-1.003.825-.617.631-1.112 1.366-1.72 2.005C19.123 12.705 8.35 23.49 7.406 24.557c-.289.325-.475.705-.834.963a3.097 3.097 0 0 1-.278.177" mask="url(#d)"/></g><path fill="#FFF" fill-rule="nonzero" d="M8.81 37.687a58.172 58.172 0 0 0 22.675-3.829c.819-.314.463-1.623-.367-1.304a57.138 57.138 0 0 1-22.307 3.78c-.89-.028-.888 1.325 0 1.353m2.704 10.866c3.354.243 6.69-.02 10.013-.474 1.676-.23 3.35-.492 5.016-.785 1.3-.228 2.448-.526 3.45-1.4.666-.58-.313-1.533-.976-.956-1.048.913-2.568 1.008-3.894 1.226-1.61.265-3.22.524-4.84.724-2.913.362-5.838.525-8.77.313-.886-.064-.882 1.289 0 1.352m4.068 13.952A43.66 43.66 0 0 0 36.34 59.77c.815-.32.46-1.628-.367-1.304a42.777 42.777 0 0 1-20.39 2.685c-.881-.098-.874 1.255 0 1.353"/></g></svg>