<svg xmlns="http://www.w3.org/2000/svg" width="82" height="82"><g fill="none" fill-rule="evenodd"><path fill="#FFF" fill-rule="nonzero" d="M50.371 40.674l-.15-.041c-2.572-.694-7.327-1.388-9.9-2.082l-.282-.076a4.807 4.807 0 0 0-.085-.118c-1.443-1.934-4.185-2.492-6.565-2.067l.18.68c-.14.032-.244.081-.26.151a.628.628 0 0 0-.035-.014 38.457 38.457 0 0 1-.104-3.978 8.075 8.075 0 0 0 3.06-2.527c1.254-1.328 1.592-3.596 1.73-5.309.036-.469.114-1.006.512-1.258.207-.13.461-.154.697-.221.724-.205 1.254-.81 1.71-1.407.633-.83.412-1.87-.046-2.76-.196-.378-.482-.73-.874-.899a1.13 1.13 0 0 0-.81-.03c.05-.166.087-.338.122-.506.705-3.354 1.858-7.007 1.353-10.435-.362-2.45-1.464-5.288-4.075-6.063-1.43-.424-2.957-.068-4.42.214a43.308 43.308 0 0 1-8.229.783c-2.565 0-6.8.274-7.35 3.533-.254 1.495.082 3.221.231 4.759.014.14.026.28.036.417.171 2.392.032 4.845.814 7.127a.642.642 0 0 0-.098-.043c-.269-.09-.574.024-.773.224-.916.925-.913 2.794-.427 3.899a3.927 3.927 0 0 0 2.323 2.115c.282.094.587.162.807.36.354.32.348.81.447 1.24a12.286 12.286 0 0 0 2.239 4.743c.604.785 1.34 1.513 2.232 1.968.148.075.304.144.464.206l.13 3.084c-1.146-.26-2.358-.001-3.388.59-.558.13-1.069.274-1.448.341-3.731.663-9.655 1.328-13.297 2.375-1.206.346-2.454 1.3-3.13 2.355a4.11 4.11 0 0 0-.463 1.053c-.235 1.572-.399 2.71-.491 3.414-.446 3.397-.717 6.813-.989 10.228-.136 1.718-.272 3.436-.41 5.153-.226 2.855-.226 3.928 0 5.463.121.814 22.307 1.395 38.133 1.183-.941 1.114-1.797 2.29-2.458 3.586 1.95.4 3.964.482 5.94.242.326-.04.673-.085.97.054.256.12.433.357.59.59a12.343 12.343 0 0 1 2.053 5.69c.034.347.153.799.503.809.224.006.395-.19.53-.37a98.398 98.398 0 0 0 7.746-12.064c.084-.155.17-.32.21-.491 2.258.414 4.648.286 6.935-.06.037.1.084.198.131.293a98.074 98.074 0 0 0 7.254 12.307c.127.183.29.386.512.386.348.002.482-.445.529-.79a12.427 12.427 0 0 1 2.243-5.618c.165-.228.35-.46.608-.57.3-.13.642-.073.965-.022a18.26 18.26 0 0 0 5.906-.047c-1.14-2.465-2.972-4.529-4.778-6.553l-3.662-4.106a7.444 7.444 0 0 0-.419-.437 27.08 27.08 0 0 0 1.223-1.892c.964-1.617 1.844-3.33 2.24-5.204 1.644-7.766-4.802-15.946-11.894-16.793-4.502-.539-9.31.524-12.998 3.236zm-23.46 7.633c.217 1.429.422 2.86.651 4.286a10.76 10.76 0 0 1-.309-1.501c-.113-.928-.226-1.857-.341-2.785zm6.583-10.953c-.043.051-.08.107-.115.166a5.507 5.507 0 0 0-.015-.27c.03.032.072.067.13.104z"/><path fill="#434860" fill-rule="nonzero" d="M16.781 11.003c.014.14.026.28.036.417.173 2.41.03 4.885.833 7.182.135.385.297.78.604 1.049.307.27.8.371 1.126.126.372-.279.364-.825.355-1.29-.01-.58.034-1.16.133-1.731.068-.394.162-.783.205-1.18.041-.381.035-.766.029-1.15-.02-1.19-.551-5.142 1.412-5.266 1.109-.07 2.028.567 3.045.878a13.67 13.67 0 0 0 8.212-.088c.463-.153.93-.333 1.42-.34.97-.015 1.877.528 2.207 1.451.236.661.219 1.38.247 2.082.034.863.363 1.355.738 2.078.442.848.43 1.977.162 2.878-.15.503-.366 1.117.001 1.491.32.325.906.202 1.216-.131.31-.334.416-.803.51-1.247.704-3.354 1.857-7.007 1.352-10.435-.362-2.45-1.464-5.288-4.075-6.063-1.43-.424-2.957-.068-4.42.214a43.308 43.308 0 0 1-8.229.783c-2.565 0-6.8.274-7.35 3.533-.254 1.495.082 3.221.231 4.759" style="mix-blend-mode:multiply"/><path fill="#FFD86A" fill-rule="nonzero" d="M19.744 10.738c.247-.795.687-1.538 1.406-1.896 1.19-.59 2.393.322 3.51.664 2.66.813 5.572.782 8.213-.089.464-.153.93-.332 1.42-.34 1.528-.022 2.628 1.42 2.863 2.806.172 1.012.236 2.02.74 2.926.826 1.48-.118 2.604.078 4.137.024.194.117.423.312.443.228.023.354-.244.5-.42.271-.329.78-.389 1.173-.22.392.168.678.52.874.899.458.89.68 1.93.046 2.759-.456.597-.986 1.202-1.71 1.407-.236.067-.49.09-.697.221-.398.252-.476.79-.513 1.258-.137 1.713-.475 3.981-1.728 5.309a8.077 8.077 0 0 1-3.177 2.58 8.998 8.998 0 0 1-2.818.78c-.816.081-1.918.232-2.7.021-1.015-.274-2.219-.453-3.155-.93-.891-.455-1.628-1.183-2.233-1.968a12.286 12.286 0 0 1-2.238-4.743c-.1-.43-.093-.92-.447-1.24-.22-.198-.525-.266-.807-.36a3.927 3.927 0 0 1-2.323-2.115c-.486-1.105-.49-2.974.427-3.899.2-.2.504-.315.773-.224.28.095.446.375.64.598.195.224.521.412.776.26.222-.134.247-.439.247-.697 0-.726-.103-1.522.09-2.224.378-1.377.121-2.84.204-4.266a6.12 6.12 0 0 1 .254-1.437" style="mix-blend-mode:multiply"/><path fill="#FFD86A" fill-rule="nonzero" d="M33.192 32.485a38.45 38.45 0 0 0 .113 4.998c.012.13.023.264-.018.388-.088.261-.374.391-.635.482a10.228 10.228 0 0 1-7.16-.207c-.142-.058-.29-.127-.375-.255-.079-.12-.087-.27-.093-.413l-.184-4.341c-.013-.288.015-.644.28-.76.118-.053.256-.038.385-.02.96.142 1.896.457 2.866.49 1.366.047 2.68-.465 4.013-.77.269-.062.569-.111.805.031.235.143.294.558.041.668" style="mix-blend-mode:multiply"/><path fill="#9CC2F7" fill-rule="nonzero" d="M2.758 46.47c-.446 3.398-.717 6.814-.989 10.229-.136 1.718-.272 3.436-.41 5.153-.226 2.855-.226 3.928 0 5.463.188 1.266 53.756 1.97 53.75 0-.01-2.77.035-13.237-.073-15.35a41.723 41.723 0 0 0-1.005-7.217c-.267-1.163-.632-2.393-1.558-3.151-.636-.521-1.457-.75-2.253-.964-2.571-.694-7.326-1.388-9.898-2.082l-3.857-1.041c-.673-.182-1.32-.477-2.012-.583-.301-.047-1.793-.007-.822.506.646.342 1.522.233 2.027.76.271.285.364.69.446 1.074l1.589 7.442c.039.184.078.378.019.557-.067.2-.242.342-.412.468a13.77 13.77 0 0 1-3.9 2.01c.023.758.744 1.268 1.304 1.78a5.734 5.734 0 0 1 1.336 1.826c.077.169.147.347.138.532-.01.198-.11.379-.207.552-2.18 3.963-3.08 8.675-6.071 12.071-.178.202-.385.41-.65.448-.504.07-.856-.469-1.069-.929a255.356 255.356 0 0 1-4.951-11.428c-.102-.251-.206-.517-.17-.786.03-.234.16-.44.287-.639l1.858-2.89c.103-.16.208-.36.118-.527-.058-.11-.184-.165-.3-.214a10.408 10.408 0 0 1-3.106-2.034c-.19-.18-.38-.377-.466-.625-.1-.285-.049-.599.003-.898l.745-4.31c.16-.928.33-1.882.82-2.688.49-.806 1.38-1.443 2.322-1.353-.846-1.79-3.857-.597-5.202-.358-3.731.663-9.655 1.328-13.297 2.375-1.206.346-2.454 1.3-3.13 2.355a4.11 4.11 0 0 0-.463 1.053c-.235 1.572-.399 2.71-.491 3.414z" style="mix-blend-mode:multiply"/><path fill="#FFF" fill-rule="nonzero" d="M25.183 39.033c.442 2.157.902 4.31 1.28 6.48.919 5.289 1.354 10.709 3.15 15.77.217-.274.29-.632.357-.976 1.278-6.621 1.752-13.378 3.057-19.994.206-1.047.434-2.11.327-3.17-.41-.212-.66.133-.973.323-1.29.785-2.858 1.062-4.347.849-.706-.102-1.465-.3-2.086-.661-.442-.257-1.197-.768-.997.235l.232 1.144" style="mix-blend-mode:multiply"/><path fill="#C5D9F5" fill-rule="nonzero" d="M32.951 38.671c.192-.482.285-1.184.736-1.498.716-.498 2.353.671 2.74 1.271.26.403.331.895.4 1.368.346 2.353 1.025 5.097 1.938 7.292.045.11.093.229.064.344-.026.103-.11.18-.19.25-1.3 1.14-2.528 1.797-4.169 2.348.18.51.645.758.984 1.18.6.75.91 1.388 1.511 2.137.095.118.192.242.224.39.065.305-.163.586-.362.827-1.014 1.234-1.714 2.852-2.357 4.274-.746 1.652-1.495 3.304-2.243 4.956-.306.674-1.69 4.141-2.876 3.424-.185-.113-.269-.335-.323-.545-.444-1.731.283-3.46.306-5.193.023-1.702.004-3.358.224-5.065.456-3.522 1.333-6.973 1.84-10.486.238-1.646.395-3.309.78-4.929.053-.22.11-.435.174-.648.251-.756.45-1.322.6-1.697z" style="mix-blend-mode:multiply"/><path fill="#C5D9F5" fill-rule="nonzero" d="M25.739 40.312c-.152-.832.101-2.58-.64-3.139-.66-.499-2.337.366-2.694.965-.24.403-.456 1.305-.52 1.78-.318 2.352-.822 4.81-1.664 7.006-.042.11-.086.228-.059.343.025.103.101.18.175.25a11.42 11.42 0 0 0 4.039 2.511 5.213 5.213 0 0 1-.746 1.444c-.554.749-.67 1.272-1.225 2.02-.087.119-.177.242-.207.39-.06.305.024 1.025.207 1.266.936 1.234 1.378 2.639 1.97 4.06.69 1.653 1.38 2.95 2.07 4.601.325.777.56 1.6 1.016 2.317.245.385 1.742 1.526 1.907.503.197-1.212.128-2.26.148-3.475.052-3.055-.733-6.051-1.51-8.981-.274-1.035-.624-2.023-.753-3.081-.145-1.191-.29-2.384-.44-3.575-.296-2.332-.618-4.662-1.033-6.977a64.889 64.889 0 0 1-.041-.228z" style="mix-blend-mode:multiply"/><path stroke="#6C6C6B" stroke-linecap="round" stroke-linejoin="round" stroke-width=".755" d="M33.389 36.29c2.38-.425 5.122.133 6.565 2.067.454.609.757 1.32.964 2.05.71 2.489.346 5.161-.32 7.663-.668 2.501-1.631 4.924-2.138 7.462M25.125 36.38c-1.785-.476-3.755.332-4.967 1.722-1.212 1.39-1.745 3.266-1.83 5.106-.084 1.84.243 3.67.57 5.484l.44 2.45c.1.55.089 2.022.438 2.439.635.756 2.113.404 2.925.32 1.794-.185 3.342.639 4.284 2.15 1.226 1.965-.426 7.683-.89 9.4-.268.99-.495 1.862-1.51.546"/><path stroke="#6C6C6B" stroke-linecap="round" stroke-linejoin="round" stroke-width=".755" d="M19.784 53.651c-1.64.352-3.32.884-4.513 2.123a3.882 3.882 0 0 0-1.026 1.959c-.494 2.52 2.438 7.424 4.083 9.421.265.322.863.486 1.413-.62"/><path fill="#535353" fill-rule="nonzero" d="M36.89 55.8c.286-1.004 1.652-1.644 2.51-.88.301.267.469.652.596 1.034.107.324.192.67.13 1.006-.41 2.191-3.873 1.079-3.236-1.16" style="mix-blend-mode:multiply"/><path fill="#F2AF21" fill-rule="nonzero" d="M49.145 61.665l5.777 3.82c.292.193.61.425.667.77.043.272-.092.538-.223.78A98.398 98.398 0 0 1 47.619 79.1c-.134.18-.305.376-.53.37-.349-.01-.468-.462-.502-.809a12.343 12.343 0 0 0-2.052-5.69c-.158-.233-.335-.47-.59-.59-.298-.139-.645-.094-.97-.054-1.977.24-3.992.158-5.941-.242 1.237-2.427 3.155-4.43 5.046-6.393l3.834-3.984c.56-.58 1.27-1.213 2.061-1.05m21.038.959l-5.875 3.626c-.296.183-.62.404-.689.747-.053.27.071.54.193.787a98.074 98.074 0 0 0 7.254 12.307c.127.183.29.386.512.386.348.002.482-.445.529-.79a12.427 12.427 0 0 1 2.243-5.618c.165-.228.35-.46.608-.57.3-.13.642-.073.965-.022a18.26 18.26 0 0 0 5.906-.047c-1.14-2.465-2.972-4.529-4.778-6.553a35857.79 35857.79 0 0 1-3.662-4.106c-.534-.598-1.217-1.253-2.009-1.117"/><path fill="#FFD100" fill-rule="nonzero" d="M75.263 54.23c1.644-7.765-4.802-15.945-11.894-16.792-6.19-.74-12.958 1.546-16.596 6.982-1.979 2.956-2.665 7.818-1.868 11.346.356 1.578 1.097 3.026 1.95 4.366 1.212 1.906 2.695 3.659 4.547 4.828 3.314 2.092 7.414 2.096 11.218 1.507 2.326-.361 4.695-.952 6.618-2.408 1.572-1.189 2.748-2.884 3.785-4.624.964-1.617 1.844-3.33 2.24-5.204"/><path stroke="#FFF" stroke-linecap="round" stroke-linejoin="round" stroke-width="2.264" d="M53.26 53.667l6.038 5.643c3.773-3.762 6.792-7.524 9.056-11.286"/></g></svg>