<svg xmlns="http://www.w3.org/2000/svg" width="82" height="82" viewBox="0 0 82 82">
    <g fill="none" fill-rule="nonzero">
        <path fill="#FFF" d="M34.825 17.227c.52-.335 1.599-.656 1.844-.75 1.912-.742 3.911-1.172 5.837-1.838 1.384-.479 2.816-.783 4.26-1.02a130.963 130.963 0 0 1-.229-3.808l-.097-2.073c-.031-.655.038-1.182.722-1.387.828-.249 3.32-.88 3.503.58.073.576.038 1.164.059 1.744.024.687.13 1.346.133 2.048.003.624-.03 1.253.051 1.874.021.159.094.341.144.52 2.514-.125 5.07.136 7.61.805 6.777 1.786 11.937 5.886 16.219 11.808a31.338 31.338 0 0 1 3.263 5.704c2.804 6.351 3.598 13.675 1.842 20.35-2.964 11.265-12.601 18.502-23.06 20.248-1.337.32-2.686.591-4.033.862-.95.191-1.946.41-2.956.602.085.027.165.061.24.105-.83.716-2.626.811-3.688.963-6.353.908-12.737.753-19.118.313a276.206 276.206 0 0 1-12.037-1.118c-2.69-.316-4.661-.716-5.916-1.2-1.197-.463-2.597-.909-3.526-1.544C.556 67.37 1 60.735 3.667 56.63c2.75-4.233 12.235-10.333 15.166-9.675-.354-3.125-.284-6.286.355-9.351.59-2.824 1.78-5.55 2.695-8.292.14-.42.283-.843.512-1.222.153-.254.344-.485.533-.715l2.106-2.548c.53-.641 1.133-1.172 1.677-1.798a19.435 19.435 0 0 1 2.477-2.376 22.23 22.23 0 0 1 1.405-1.043c.233-.16.51-.295.72-.48.106-.091.174-.2.278-.285-1.04-1.182-2.174-2.281-3.161-3.527-.554-.697-.928-1.456-.207-2.148a5.9 5.9 0 0 1 1.515-1.054c.874-.423 1.087.073 1.587.73l.462.61c.172.227.344.454.525.673.658.795 1.357 1.528 1.985 2.335.118.151.234.306.346.465.07.096.13.196.182.298z"/>
        <path fill="#EBF8F7" d="M74.772 32.956c2.427 5.498 3.114 11.838 1.594 17.617-4.779 18.165-29.6 24.232-41.736 10.02-4.716-5.525-6.777-16.35-5.245-23.327 1.405-6.393 4.873-12.164 10.003-15.878 5.435-3.936 12.037-5.301 18.518-3.593 5.866 1.546 10.333 5.096 14.041 10.222a27.113 27.113 0 0 1 2.825 4.939"/>
        <path fill="#7CA0D8" d="M75.317 50.214C70.748 67.579 47.02 73.379 35.42 59.792c-4.508-5.28-6.48-15.629-5.014-22.297 1.342-6.112 4.658-11.63 9.561-15.18 5.197-3.762 11.508-5.067 17.703-3.434 5.608 1.478 9.878 4.871 13.423 9.772a25.971 25.971 0 0 1 2.7 4.72c2.32 5.256 2.977 11.317 1.524 16.841m2.827-18.78a31.338 31.338 0 0 0-3.263-5.704c-4.282-5.922-9.442-10.022-16.219-11.808-7.485-1.973-15.112-.395-21.39 4.15-5.925 4.29-9.932 10.957-11.554 18.341-1.77 8.059.611 20.564 6.06 26.944 14.018 16.416 42.687 9.409 48.208-11.574 1.756-6.674.962-13.998-1.842-20.349" style="mix-blend-mode:multiply"/>
        <path fill="#96ABF7" d="M46.043 14.67c.748-.194 1.523-.258 2.272-.449.225-.057 1.897-.637 1.6-.933-.096-.097-.254-.086-.39-.067a3.126 3.126 0 0 1-.07.009c-2.34.315-4.708.634-6.949 1.409-1.926.666-3.925 1.096-5.837 1.837-.335.13-2.223.68-2.122 1.112.024.1.096.182.144.273.16.305.035.699-.212.938-.246.24-.586.355-.92.436-.412.1-.913.132-1.193-.186-.083-.093-.14-.213-.246-.279-.122-.076-.285-.06-.415.001-.178.087-.252.238-.391.36-.212.184-.488.32-.72.479-.482.33-.952.676-1.406 1.043a19.435 19.435 0 0 0-2.477 2.376c-.544.626-1.148 1.157-1.677 1.798l-2.106 2.548c-.189.23-.38.46-.533.715-.23.379-.372.802-.512 1.222-.915 2.743-2.105 5.468-2.695 8.292-1.33 6.372-.195 13.153 2.077 19.177.65 1.724 1.424 3.409 2.428 4.954 1.375 2.117 2.91 4.173 4.809 5.853.761.674 1.26 1.546 2.112 2.101 1.082.706 2.362 1.27 3.487 1.944.494.295.99.592 1.525.807.632.253 1.305.386 1.975.506 2.3.413 4.717.822 7.025 1.004 2.69.212 5.647-.53 8.267-1.056 1.569-.315 3.14-.63 4.69-1.024a48.095 48.095 0 0 0 6.882-2.309c-.022.009-1.027.081-1.187.117-.65.144-1.356.408-2.043.548-1.607.327-3.22.625-4.848.82-3.173.383-6.388.375-9.523-.295-5.458-1.166-10.131-3.534-13.657-7.845l-1.452-1.775c-2.978-3.641-4.146-8.47-4.782-12.966-.798-5.637-.303-11.48 1.733-16.815 1.391-3.648 3.288-6.277 5.72-9.287a17.757 17.757 0 0 1 2.823-2.78c.735-.584 1.449-1.163 2.257-1.641a59.285 59.285 0 0 1 3.036-1.678c.455-.234.914-.463 1.39-.648.679-.265 1.408-.462 2.111-.645" style="mix-blend-mode:multiply"/>
        <path fill="#C5DCF7" d="M49.664 20.542c.006 1.013.011 2.026.015 3.04.01 1.737 2.712 1.74 2.703 0-.004-1.014-.01-2.027-.015-3.04-.01-1.737-2.712-1.74-2.703 0M61.97 22.21l-1.579 2.598c-.905 1.49 1.432 2.848 2.333 1.363a2557.9 2557.9 0 0 0 1.579-2.598c.905-1.49-1.43-2.848-2.334-1.363M71.552 30.066l-2.705 1.389c-.65.333-.839 1.242-.484 1.847.385.658 1.196.819 1.848.484l2.706-1.388c.649-.333.839-1.243.485-1.848-.386-.658-1.198-.819-1.85-.484M75.62 41.747l-3.033-.232c-.729-.056-1.351.66-1.351 1.35 0 .777.62 1.295 1.351 1.35l3.033.232c.728.056 1.35-.66 1.35-1.35 0-.777-.62-1.295-1.35-1.35M72.972 53.812c-.82-.595-1.641-1.19-2.463-1.783-.59-.429-1.506-.102-1.849.484-.398.682-.108 1.418.485 1.847.82.595 1.642 1.19 2.464 1.783.59.429 1.505.102 1.848-.484.4-.682.108-1.418-.485-1.847M64.534 63.002l-1.165-2.808c-.28-.673-.896-1.153-1.662-.943-.637.175-1.225.983-.944 1.661l1.165 2.808c.28.673.896 1.153 1.662.943.637-.175 1.226-.983.944-1.661M52.424 66.126c.16-1 .32-2.002.478-3.002.115-.72-.185-1.452-.944-1.661-.643-.177-1.547.219-1.662.943l-.478 3.002c-.114.72.185 1.453.944 1.66.643.177 1.547-.218 1.662-.942M40.498 62.44l1.979-2.309c.475-.553.544-1.366 0-1.91-.486-.485-1.434-.556-1.911 0l-1.98 2.308c-.474.554-.543 1.367 0 1.91.487.486 1.435.557 1.912 0M32.277 53.082l2.895-.932c.695-.223 1.144-.936.945-1.66-.189-.683-.966-1.168-1.663-.944l-2.895.932c-.695.223-1.143.936-.944 1.66.187.682.965 1.169 1.662.944M30.144 40.825l2.955.72c1.69.412 2.41-2.191.719-2.604l-2.956-.72c-1.689-.411-2.41 2.192-.718 2.604M34.761 29.294l2.14 2.16c.515.517 1.398.513 1.912 0a1.37 1.37 0 0 0 0-1.91l-2.14-2.16c-.514-.518-1.398-.514-1.912 0-.52.52-.515 1.39 0 1.91" style="mix-blend-mode:multiply"/>
        <path fill="#FF6089" d="M54.31 44.056c-.899.609-2.46.855-3.096-.307-.805-1.472.888-2.72 2.045-3.2 1.746-.726 3.449-1.592 5.166-2.385l2.34-1.08c1.59-.733 3.181-1.468 4.84-2.026.107-.036.225-.071.329-.027.712.302-1.48 1.287-1.668 1.397-3.617 2.106-6.49 5.282-9.956 7.628" style="mix-blend-mode:multiply"/>
        <path fill="#C5DCF7" d="M51.089 13.528c.065-.281-.143-.644-.18-.93-.082-.622-.05-1.251-.052-1.875-.004-.702-.109-1.36-.133-2.048-.02-.58.014-1.168-.059-1.745-.183-1.458-2.675-.828-3.503-.58-.684.206-.753.733-.722 1.388l.097 2.073c.065 1.354.14 2.71.249 4.062.008.103.019.21.076.296a.485.485 0 0 0 .283.174c.417.113.888-.042 1.303-.107l1.531-.239c.186-.028.373-.057.558-.09.11-.02.221-.041.318-.094a.43.43 0 0 0 .234-.285" style="mix-blend-mode:multiply"/>
        <path fill="#E7F1F7" d="M9.418 72.558c-1.197-.462-2.597-.908-3.526-1.543C.556 67.37 1 60.735 3.667 56.63c3.166-4.873 15.257-12.22 16-8.883 1.777 7.994 4.195 12.507 4.44 12.987.667 1.3 1.599 2.443 2.524 3.575.515.63 1.031 1.261 1.615 1.827.437.423 1.023.761 1.403 1.233.252.313.408 1.071.923.96.072.288.273.474.506.643 1.301.949 2.709 1.75 4.186 2.391 1.078.468 2.248.737 3.407.938 3.258.565 6.538 1.132 9.845 1.108.515-.004 1.2-.074 1.661.192-.83.716-2.626.811-3.688.963-6.353.908-12.737.753-19.118.313a276.206 276.206 0 0 1-12.037-1.118c-2.69-.316-4.661-.716-5.916-1.2z" style="mix-blend-mode:multiply"/>
        <path fill="#9EBCF7" d="M34.297 16.464c.118.151.234.306.346.465.647.91.582 2.07-.481 2.617-.268.137-.572.192-.87.238-.326.051-.69.087-.958-.106a1.295 1.295 0 0 1-.236-.24c-1.169-1.415-2.517-2.669-3.668-4.12-.554-.697-.928-1.456-.207-2.148a5.9 5.9 0 0 1 1.515-1.054c.874-.423 1.087.073 1.587.73l.462.61c.172.227.344.454.525.673.658.795 1.357 1.528 1.985 2.335" style="mix-blend-mode:multiply"/>
    </g>
</svg>
